<?xml version="1.0" encoding="UTF-8"?>
<svg id="Layer_2" data-name="Layer 2" xmlns="http://www.w3.org/2000/svg" viewBox="0 0 196.68 202.54">
  <defs>
    <style>
      .cls-1, .cls-2, .cls-3, .cls-4, .cls-5, .cls-6, .cls-7, .cls-8, .cls-9, .cls-10, .cls-11, .cls-12 {
        stroke-miterlimit: 10;
      }

      .cls-1, .cls-2, .cls-3, .cls-5, .cls-6, .cls-8, .cls-11, .cls-12 {
        stroke: #59506f;
      }

      .cls-1, .cls-13, .cls-8, .cls-11 {
        fill: #aba3c1;
      }

      .cls-1, .cls-10 {
        stroke-linecap: round;
      }

      .cls-2, .cls-9, .cls-12 {
        fill: #59506f;
      }

      .cls-3, .cls-7, .cls-10 {
        fill: none;
      }

      .cls-4 {
        fill: #fff;
      }

      .cls-4, .cls-10 {
        stroke: #fff;
      }

      .cls-5, .cls-6, .cls-14 {
        fill: #d5c1de;
      }

      .cls-6, .cls-11, .cls-12 {
        stroke-width: 2px;
      }

      .cls-7, .cls-9 {
        stroke: #d5c1de;
      }

      .cls-15 {
        fill: #f7eef5;
      }

      .cls-16 {
        fill: #aca2b8;
      }

      .cls-10 {
        stroke-width: 3px;
      }
    </style>
  </defs>
  <g id="Layer_1-2" data-name="Layer 1">
    <g>
      <path class="cls-14" d="M3.67,47.54c47.51-.66,100.33-.65,147.87,0-47.55.65-100.35.66-147.87,0h0Z"/>
      <g>
        <line class="cls-16" x1="47.47" x2="45.82" y2="186.21"/>
        <path class="cls-14" d="M47.47,0c.12,59.65-.47,126.57-1.65,186.21C45.69,126.56,46.29,59.64,47.47,0h0Z"/>
      </g>
      <g>
        <line class="cls-16" x1="69.14" y1="23.34" x2="68.61" y2="108.57"/>
        <path class="cls-14" d="M69.14,23.34c.49,27.44.3,57.79-.53,85.23-.49-27.45-.3-57.8.53-85.23h0Z"/>
      </g>
      <path class="cls-14" d="M0,77.79c56.49-.65,119.88-.66,176.37,0-56.49.66-119.88.65-176.37,0h0Z"/>
      <path class="cls-14" d="M27.21,60.75c38.41-.66,81.11-.65,119.55,0-38.44.65-81.13.66-119.55,0h0Z"/>
      <g>
        <line class="cls-16" x1="186.07" y1="149.7" x2="5.8" y2="148.58"/>
        <path class="cls-14" d="M186.07,149.7c-57.75.29-122.53-.1-180.27-1.12,57.75-.3,122.53.11,180.27,1.12h0Z"/>
      </g>
      <g>
        <line class="cls-16" x1="196.68" y1="121.57" x2="36.56" y2="120.58"/>
        <path class="cls-14" d="M196.68,121.57c-51.29.33-108.83-.02-160.12-.99,51.29-.34,108.83.02,160.12.99h0Z"/>
      </g>
      <path class="cls-8" d="M61.72,77.81c-.02.46-.03.92-.03,1.37v-1.37h.03Z"/>
      <path class="cls-11" d="M105.67,39.83v15.47h-15.47v-15.47c0-4.27,3.47-7.74,7.74-7.74s7.74,3.46,7.74,7.74Z"/>
      <path class="cls-8" d="M135.6,77.81v1.37c0-.46,0-.92-.03-1.37h.03Z"/>
      <path class="cls-11" d="M138.08,111.1c1.14,1.85,2.64,3.48,4.45,4.79h0c3.98,2.87,6.34,7.48,6.34,12.38v9.41c0-3.2-5.03-6.1-13.27-8.27-9.18-2.43-22.34-3.95-36.95-3.95s-27.77,1.52-36.95,3.95c-8.24,2.17-13.27,5.08-13.27,8.27v-9.41c0-4.91,2.36-9.51,6.34-12.38h0c4.35-3.14,6.93-8.17,6.93-13.54v-23.16c0-.46,0-.92.03-1.37.71-20.15,16.97-36.25,36.93-36.25,1.36,0,2.71.08,4.04.22"/>
      <path class="cls-2" d="M148.87,140.7c0,6.75-22.49,12.23-50.22,12.23s-50.22-5.48-50.22-12.23c0-2.65,3.45-5.09,9.32-7.09,1.22-.41,2.53-.81,3.95-1.18,9.18-2.43,22.34-3.95,36.95-3.95s27.77,1.52,36.95,3.95c1.41.37,2.73.77,3.95,1.18,5.87,2,9.32,4.44,9.32,7.09Z"/>
      <path class="cls-6" d="M119.12,137.67v2.69c0,11.31-9.18,20.47-20.47,20.47s-20.47-9.16-20.47-20.47v-2.69h40.95Z"/>
      <path class="cls-12" d="M103.17,107.87l36.2,4.42c-1.6-2.6-3.29-6.72-3.29-9.86v-23.16c0-.46,0-.92-.03-1.37-.66-18.77-14.82-34.03-32.89-36.03v67.78"/>
      <path class="cls-13" d="M118.81,52.57c5.39,4.92,8.66,11.72,9.9,18.82,1.34,9.22.86,18.85.63,28.12-.09,2.32.05,4.63-.43,6.94-.13.66-.78,1.09-1.44.95-.5-.1-.86-.5-.95-.97-.44-2.35-.18-4.69-.12-7.02.29-6.73.71-14.17.47-20.83,0-8.96-2.62-18.39-9.18-24.75-.81-.72.3-2,1.13-1.26h0Z"/>
      <path class="cls-4" d="M59.7,106.45l.34-1.94c36.92-4.28,42.66-3.83,76.77-.03l.35,1.64c-30.61-4.78-47.1-4.67-77.75.33"/>
      <path class="cls-4" d="M54.35,114.74l2.66-2.09s34.55-11.19,83.22-.16l2.25,1.58c-48.67-11.02-89.23.98-89.23.98"/>
      <path class="cls-15" d="M119.86,62.74c2.32,4.1,3.03,9,2.95,13.64,0,1.28.11,3.26.12,4.56,0,2.64-3.89,2.74-4.01.09.71-4.38,1.05-8.82,0-13.13-.34-1.34-.84-2.66-1.44-3.94-.32-.67-.04-1.47.63-1.79.65-.31,1.43-.05,1.76.58h0Z"/>
      <path class="cls-10" d="M111.12,144.53c-.49,4.84-4.01,9.06-9.15,9.45"/>
      <path class="cls-15" d="M121.92,85.69c1.75,1.95-.47,7.07-3.16,4.81-.84-1.04-.81-2.56-.43-3.73.56-1.46,2.34-2.5,3.59-1.08h0Z"/>
      <path class="cls-1" d="M53.74,123.26c5.57-2.13,10.46-3.53,16.54-4.48"/>
      <g>
        <line class="cls-16" x1="159.97" y1="53.57" x2="158.88" y2="202.54"/>
        <path class="cls-14" d="M159.97,53.57c.31,47.87-.09,101.08-1.09,148.97-.3-47.91.08-101.1,1.09-148.97h0Z"/>
      </g>
      <path class="cls-1" d="M53.74,125.48c7.39-2.9,13.44-3.9,20.4-4.96"/>
      <path class="cls-1" d="M53.25,127.92c9.16-3.83,21.13-6.27,38.18-6.9"/>
      <g>
        <path class="cls-14" d="M42.22,132.67c-8.58,1.71-9.48,3.1-10.6,16.25-1.11-13.15-2.02-14.54-10.6-16.25,8.58-1.71,9.48-3.1,10.6-16.25,1.11,13.15,2.02,14.54,10.6,16.25Z"/>
        <path class="cls-3" d="M42.22,132.67c-8.58,1.71-9.48,3.1-10.6,16.25-1.11-13.15-2.02-14.54-10.6-16.25,8.58-1.71,9.48-3.1,10.6-16.25,1.11,13.15,2.02,14.54,10.6,16.25Z"/>
      </g>
      <circle class="cls-7" cx="31.62" cy="68.4" r="4.94"/>
      <circle class="cls-5" cx="157.31" cy="93.1" r="13.39"/>
      <circle class="cls-7" cx="136.45" cy="165.72" r="4.88"/>
      <circle class="cls-9" cx="37.93" cy="91.09" r="4.21"/>
    </g>
  </g>
</svg>