<?xml version="1.0" encoding="UTF-8"?>
<svg id="Layer_2" data-name="Layer 2" xmlns="http://www.w3.org/2000/svg" viewBox="0 0 163.74 159.77">
  <defs>
    <style>
      .cls-1 {
        stroke-width: 5px;
      }

      .cls-1, .cls-2, .cls-3, .cls-4, .cls-5, .cls-6, .cls-7, .cls-8, .cls-9, .cls-10 {
        stroke-miterlimit: 10;
      }

      .cls-1, .cls-2, .cls-3, .cls-7 {
        fill: none;
      }

      .cls-1, .cls-2, .cls-4, .cls-5, .cls-6, .cls-8, .cls-10 {
        stroke-linecap: round;
      }

      .cls-1, .cls-8 {
        stroke: #f7eef5;
      }

      .cls-11 {
        fill: #f7eef5;
      }

      .cls-2 {
        stroke-dasharray: 1 10;
      }

      .cls-2, .cls-5 {
        stroke: #7e7193;
      }

      .cls-2, .cls-6, .cls-10 {
        stroke-width: 2px;
      }

      .cls-3 {
        stroke: #d6c5e1;
        stroke-width: .5px;
      }

      .cls-4 {
        fill: #59506f;
      }

      .cls-4, .cls-6, .cls-7, .cls-10 {
        stroke: #59506f;
      }

      .cls-4, .cls-7 {
        stroke-width: .75px;
      }

      .cls-5 {
        fill: #aba3c2;
        stroke-width: 3px;
      }

      .cls-6 {
        fill: #aba3c1;
      }

      .cls-12 {
        fill: #6a5f82;
      }

      .cls-8 {
        fill: #f6eef6;
        stroke-width: 4px;
      }

      .cls-9 {
        stroke: #aba3c1;
      }

      .cls-9, .cls-10 {
        fill: #c8b7da;
      }
    </style>
  </defs>
  <g id="Layer_1-2" data-name="Layer 1">
    <g>
      <g>
        <circle class="cls-3" cx="81.59" cy="73.45" r="48.99"/>
        <line class="cls-3" x1="81.59" y1="61.63" x2="81.59" y2=".85"/>
        <line class="cls-3" x1="78.54" y1="62.05" x2="61.93" y2=".06"/>
        <line class="cls-3" x1="75.69" y1="63.22" x2="46.06" y2="11.91"/>
        <line class="cls-3" x1="73.24" y1="65.1" x2="26.46" y2="18.32"/>
        <line class="cls-3" x1="80.1" y1="72.59" x2="18.39" y2="36.96"/>
        <line class="cls-3" x1="79.87" y1="72.99" x2="5.62" y2="53.1"/>
        <line class="cls-3" x1="79.4" y1="73.46" x2="8.56" y2="73.46"/>
        <line class="cls-3" x1="79.23" y1="74.09" x2="2.3" y2="94.7"/>
        <line class="cls-3" x1="79.4" y1="74.72" x2="18.3" y2="110"/>
        <line class="cls-3" x1="79.87" y1="75.18" x2="25.17" y2="129.88"/>
        <line class="cls-3" x1="80.41" y1="75.5" x2="45.39" y2="136.16"/>
        <line class="cls-3" x1="78.58" y1="84.72" x2="59.98" y2="154.11"/>
        <line class="cls-3" x1="81.59" y1="84.84" x2="81.59" y2="145.42"/>
        <line class="cls-3" x1="84.65" y1="84.84" x2="103.15" y2="153.92"/>
        <line class="cls-3" x1="87.48" y1="83.64" x2="118.55" y2="137.46"/>
        <line class="cls-3" x1="83.81" y1="75.67" x2="138.67" y2="130.54"/>
        <line class="cls-3" x1="84.21" y1="74.97" x2="148.16" y2="111.88"/>
        <line class="cls-3" x1="83.82" y1="74.05" x2="157.29" y2="93.74"/>
        <line class="cls-3" x1="83.82" y1="73.46" x2="157.17" y2="73.46"/>
        <line class="cls-3" x1="83.67" y1="72.9" x2="156.99" y2="53.25"/>
        <line class="cls-3" x1="84.21" y1="71.95" x2="145.12" y2="36.78"/>
        <line class="cls-3" x1="89.93" y1="65.12" x2="136.73" y2="18.32"/>
        <line class="cls-3" x1="87.49" y1="63.23" x2="117.76" y2="10.8"/>
        <line class="cls-3" x1="84.76" y1="61.65" x2="101.22" y2=".21"/>
        <circle class="cls-3" cx="81.59" cy="73.45" r="28.12"/>
        <path class="cls-4" d="M50.43,102.18v6.42c0,3.54,13.95,6.42,31.16,6.42s31.16-2.87,31.16-6.42v-6.42h-62.33Z"/>
        <ellipse class="cls-6" cx="81.59" cy="101.83" rx="30.5" ry="7.77"/>
        <path class="cls-4" d="M58.6,93.8v5.07c0,2.8,10.29,5.07,22.99,5.07s22.99-2.27,22.99-5.07v-5.07h-45.98Z"/>
        <ellipse class="cls-6" cx="81.59" cy="93.8" rx="22.34" ry="5.69"/>
        <path class="cls-10" d="M86.43,92.26v-45.08h-9.67v45.08h0c0,.99,2.17,1.79,4.84,1.79s4.84-.8,4.84-1.79c0,0,0,0,0,0Z"/>
        <circle class="cls-5" cx="81.59" cy="46.53" r="19.09"/>
        <path class="cls-1" d="M89.44,38.33c1.72,1.08,3.5,4.79,3.15,7"/>
        <path class="cls-9" d="M144.43,112.34c-24.56,36.78-69.81,43.86-104.37,20.78C5.5,110.03-3.8,63.31,19.28,28.75c5.2-7.79,11.62-14.28,18.81-19.42-9.22,5.88-17.41,13.71-23.88,23.39C-10.74,70.08-.69,120.6,36.68,145.56c37.36,24.96,87.89,14.9,112.85-22.46,24.96-37.36,14.9-87.89-22.46-112.85-.57-.38-1.16-.73-1.73-1.1,33.16,23.46,41.8,69.2,19.1,103.19Z"/>
        <ellipse class="cls-2" cx="81.59" cy="73.71" rx="64.02" ry="64.19" transform="translate(-5.28 6.3) rotate(-4.28)"/>
        <g>
          <path class="cls-11" d="M23.71,73.45c-4.6.85-5.29,1.53-6.14,6.14-.85-4.6-1.53-5.29-6.14-6.14,4.6-.85,5.29-1.53,6.14-6.14.85,4.6,1.53,5.29,6.14,6.14Z"/>
          <path class="cls-7" d="M23.71,73.45c-4.6.85-5.29,1.53-6.14,6.14-.85-4.6-1.53-5.29-6.14-6.14,4.6-.85,5.29-1.53,6.14-6.14.85,4.6,1.53,5.29,6.14,6.14Z"/>
        </g>
        <g>
          <path class="cls-11" d="M151.26,73.45c-4.6.85-5.29,1.53-6.14,6.14-.85-4.6-1.53-5.29-6.14-6.14,4.6-.85,5.29-1.53,6.14-6.14.85,4.6,1.53,5.29,6.14,6.14Z"/>
          <path class="cls-7" d="M151.26,73.45c-4.6.85-5.29,1.53-6.14,6.14-.85-4.6-1.53-5.29-6.14-6.14,4.6-.85,5.29-1.53,6.14-6.14.85,4.6,1.53,5.29,6.14,6.14Z"/>
        </g>
        <g>
          <path class="cls-12" d="M87.73,9.15c-4.6.85-5.29,1.53-6.14,6.14-.85-4.6-1.53-5.29-6.14-6.14,4.6-.85,5.29-1.53,6.14-6.14.85,4.6,1.53,5.29,6.14,6.14Z"/>
          <path class="cls-7" d="M87.73,9.15c-4.6.85-5.29,1.53-6.14,6.14-.85-4.6-1.53-5.29-6.14-6.14,4.6-.85,5.29-1.53,6.14-6.14.85,4.6,1.53,5.29,6.14,6.14Z"/>
        </g>
      </g>
      <circle class="cls-8" cx="91.04" cy="53.1" r=".8"/>
    </g>
  </g>
</svg>