<?xml version="1.0" encoding="UTF-8"?>
<svg id="Layer_2" data-name="Layer 2" xmlns="http://www.w3.org/2000/svg" viewBox="0 0 163.76 175.59">
  <defs>
    <style>
      .cls-1 {
        stroke-width: 5px;
      }

      .cls-1, .cls-2, .cls-3, .cls-4, .cls-5, .cls-6, .cls-7, .cls-8, .cls-9, .cls-10, .cls-11 {
        stroke-miterlimit: 10;
      }

      .cls-1, .cls-2, .cls-3, .cls-8 {
        fill: none;
      }

      .cls-1, .cls-2, .cls-4, .cls-5, .cls-7, .cls-9, .cls-11 {
        stroke-linecap: round;
      }

      .cls-1, .cls-9 {
        stroke: #f7eef5;
      }

      .cls-12 {
        fill: #f7eef5;
      }

      .cls-2 {
        stroke-dasharray: 1 10;
      }

      .cls-2, .cls-5 {
        stroke: #7e7193;
      }

      .cls-2, .cls-7, .cls-11 {
        stroke-width: 2px;
      }

      .cls-3 {
        stroke: #d6c5e1;
      }

      .cls-3, .cls-6 {
        stroke-width: .5px;
      }

      .cls-4, .cls-6 {
        fill: #59506f;
      }

      .cls-4, .cls-6, .cls-7, .cls-8, .cls-11 {
        stroke: #59506f;
      }

      .cls-4, .cls-8 {
        stroke-width: .75px;
      }

      .cls-5 {
        fill: #aba3c2;
        stroke-width: 3px;
      }

      .cls-7 {
        fill: #aba3c1;
      }

      .cls-13 {
        fill: #6a5f82;
      }

      .cls-9 {
        fill: #f6eef6;
        stroke-width: 4px;
      }

      .cls-10 {
        stroke: #aba3c1;
      }

      .cls-10, .cls-11 {
        fill: #c8b7da;
      }
    </style>
  </defs>
  <g id="Layer_1-2" data-name="Layer 1">
    <g>
      <circle class="cls-3" cx="85.27" cy="87.92" r="48.99"/>
      <line class="cls-3" x1="85.27" y1="85.73" x2="85.27" y2="15.31"/>
      <line class="cls-3" x1="84.74" y1="85.95" x2="65.73" y2="15.02"/>
      <line class="cls-3" x1="84.61" y1="86.78" x2="49.73" y2="26.38"/>
      <line class="cls-3" x1="84.26" y1="86.92" x2="29.29" y2="31.95"/>
      <line class="cls-3" x1="84.46" y1="87.46" x2="22.06" y2="51.43"/>
      <line class="cls-3" x1="84.46" y1="87.71" x2="4.97" y2="66.41"/>
      <line class="cls-3" x1="84.34" y1="87.92" x2="12.23" y2="87.92"/>
      <line class="cls-3" x1="84.46" y1="88.14" x2="5.19" y2="109.38"/>
      <line class="cls-3" x1="84.46" y1="88.39" x2="21.97" y2="124.47"/>
      <line class="cls-3" x1="83.54" y1="89.65" x2="23.38" y2="149.81"/>
      <line class="cls-3" x1="84.09" y1="89.97" x2="49.06" y2="150.63"/>
      <line class="cls-3" x1="82.25" y1="99.19" x2="62.61" y2="172.46"/>
      <line class="cls-3" x1="85.27" y1="99.31" x2="85.26" y2="159.89"/>
      <line class="cls-3" x1="88.32" y1="99.31" x2="105.86" y2="164.78"/>
      <line class="cls-3" x1="91.15" y1="98.11" x2="122.22" y2="151.93"/>
      <line class="cls-3" x1="87.48" y1="90.14" x2="141.74" y2="144.4"/>
      <line class="cls-3" x1="87.88" y1="89.43" x2="151.83" y2="126.35"/>
      <line class="cls-3" x1="87.49" y1="88.52" x2="158.51" y2="107.55"/>
      <line class="cls-3" x1="87.49" y1="87.92" x2="160.84" y2="87.92"/>
      <line class="cls-3" x1="87.34" y1="87.37" x2="158.81" y2="68.22"/>
      <line class="cls-3" x1="87.88" y1="86.41" x2="148.79" y2="51.24"/>
      <line class="cls-3" x1="93.6" y1="79.59" x2="140.94" y2="32.24"/>
      <line class="cls-3" x1="91.17" y1="77.7" x2="121.44" y2="25.27"/>
      <line class="cls-3" x1="88.43" y1="76.12" x2="105" y2="14.29"/>
      <circle class="cls-3" cx="85.27" cy="87.92" r="28.12"/>
      <path class="cls-4" d="M54.1,116.65v6.42c0,3.54,13.95,6.42,31.16,6.42s31.16-2.87,31.16-6.42v-6.42h-62.33Z"/>
      <ellipse class="cls-7" cx="85.27" cy="116.3" rx="30.5" ry="7.77"/>
      <path class="cls-4" d="M62.27,108.27v5.07c0,2.8,10.29,5.07,22.99,5.07s22.99-2.27,22.99-5.07v-5.07h-45.98Z"/>
      <ellipse class="cls-7" cx="85.27" cy="108.27" rx="22.34" ry="5.69"/>
      <path class="cls-11" d="M88.49,107.56l12.18-43.41-9.31-2.61-12.18,43.41h0c-.69,2,1.29,2.92,4.08,3.24s4.96.32,5.23-.63c0,0,0,0,0,0Z"/>
      <circle class="cls-5" cx="94.01" cy="62.55" r="19.09"/>
      <path class="cls-10" d="M113.18,157.9c-38.78,14.95-82.33-4.37-97.28-43.14C.95,75.98,20.27,32.42,59.04,17.47c8.74-3.37,17.72-4.98,26.57-5.04-10.93-.51-22.13,1.17-32.99,5.36C10.69,33.96-10.2,81.05,5.97,122.98c16.16,41.93,63.25,62.81,105.18,46.65,41.93-16.16,62.81-63.25,46.65-105.18-.25-.64-.52-1.26-.79-1.89,13.59,38.28-5.7,80.65-43.83,95.35Z"/>
      <ellipse class="cls-2" cx="85.27" cy="88.14" rx="64.02" ry="64.19" transform="translate(-6.34 6.61) rotate(-4.28)"/>
      <circle class="cls-6" cx="105.01" cy="8.32" r="8.07"/>
      <path class="cls-6" d="M139.02,26.61c-3.76,1.45-7.99-.42-9.44-4.19-1.45-3.76.42-7.99,4.19-9.44.18-.07.37-.13.56-.18-1.62-.36-3.35-.26-5.01.38-4.5,1.73-6.74,6.78-5,11.28,1.73,4.5,6.78,6.74,11.28,5,1.66-.64,3.01-1.73,3.97-3.08-.17.08-.35.17-.53.24Z"/>
      <path class="cls-6" d="M151.88,46.5c-1.64-3.46-.6-7.5,2.28-9.78-.59.13-1.17.32-1.74.59-4.03,1.91-5.75,6.72-3.84,10.75,1.91,4.03,6.72,5.75,10.75,3.84.57-.27,1.08-.6,1.56-.97-3.59.79-7.37-.96-9.01-4.42Z"/>
      <path class="cls-1" d="M103.42,54.75c1.46,1.4,2.46,5.4,1.66,7.49"/>
      <g>
        <path class="cls-12" d="M155.43,87.71c-4.6-.85-5.29-1.53-6.14-6.14-.85,4.6-1.53,5.29-6.14,6.14,4.6.85,5.29,1.53,6.14,6.14.85-4.6,1.53-5.29,6.14-6.14Z"/>
        <path class="cls-8" d="M155.43,87.71c-4.6-.85-5.29-1.53-6.14-6.14-.85,4.6-1.53,5.29-6.14,6.14,4.6.85,5.29,1.53,6.14,6.14.85-4.6,1.53-5.29,6.14-6.14Z"/>
      </g>
      <g>
        <path class="cls-13" d="M91.4,151.93c-4.6-.85-5.29-1.53-6.14-6.14-.85,4.6-1.53,5.29-6.14,6.14,4.6.85,5.29,1.53,6.14,6.14.85-4.6,1.53-5.29,6.14-6.14Z"/>
        <path class="cls-8" d="M91.4,151.93c-4.6-.85-5.29-1.53-6.14-6.14-.85,4.6-1.53,5.29-6.14,6.14,4.6.85,5.29,1.53,6.14,6.14.85-4.6,1.53-5.29,6.14-6.14Z"/>
      </g>
      <g>
        <path class="cls-12" d="M28.2,87.71c-4.6-.85-5.29-1.53-6.14-6.14-.85,4.6-1.53,5.29-6.14,6.14,4.6.85,5.29,1.53,6.14,6.14.85-4.6,1.53-5.29,6.14-6.14Z"/>
        <path class="cls-8" d="M28.2,87.71c-4.6-.85-5.29-1.53-6.14-6.14-.85,4.6-1.53,5.29-6.14,6.14,4.6.85,5.29,1.53,6.14,6.14.85-4.6,1.53-5.29,6.14-6.14Z"/>
      </g>
      <circle class="cls-9" cx="101.46" cy="69.44" r=".8"/>
    </g>
  </g>
</svg>