<?xml version="1.0" encoding="UTF-8"?>
<svg id="Layer_2" data-name="Layer 2" xmlns="http://www.w3.org/2000/svg" xmlns:xlink="http://www.w3.org/1999/xlink" viewBox="0 0 182.31 103.51">
  <defs>
    <style>
      .cls-1 {
        stroke-width: 2px;
      }

      .cls-1, .cls-2, .cls-3, .cls-4, .cls-5, .cls-6, .cls-7 {
        fill: none;
      }

      .cls-1, .cls-2, .cls-4, .cls-8, .cls-5, .cls-6, .cls-7 {
        stroke-miterlimit: 10;
      }

      .cls-1, .cls-2, .cls-5 {
        stroke: #59506f;
      }

      .cls-9 {
        fill: #c4a3cd;
      }

      .cls-10 {
        clip-path: url(#clippath-1);
      }

      .cls-4 {
        stroke-width: 3px;
      }

      .cls-4, .cls-8, .cls-6 {
        stroke: #7e7191;
      }

      .cls-8 {
        fill: #e3d3e8;
      }

      .cls-5 {
        stroke-linecap: round;
        stroke-width: .75px;
      }

      .cls-7 {
        stroke: #fff;
        stroke-width: 1.5px;
      }

      .cls-11 {
        clip-path: url(#clippath-2);
      }

      .cls-12 {
        fill: url(#linear-gradient);
      }

      .cls-13 {
        clip-path: url(#clippath);
      }
    </style>
    <linearGradient id="linear-gradient" x1="91.1" y1="5.34" x2="91.1" y2="101.7" gradientUnits="userSpaceOnUse">
      <stop offset="0" stop-color="#f7eef5"/>
      <stop offset=".04" stop-color="#f2e7f1"/>
      <stop offset=".29" stop-color="#dec9e1"/>
      <stop offset=".54" stop-color="#cfb4d6"/>
      <stop offset=".78" stop-color="#c6a7cf"/>
      <stop offset="1" stop-color="#c4a3cd"/>
    </linearGradient>
    <clipPath id="clippath">
      <path class="cls-3" d="M72.73,18.05v23.02h96.2v-23.02h-96.2ZM149.44,37.01c-16.12-2.92-36.57-4.55-58.34-4.55-2.97,0-5.96.03-8.87.09-1.27.03-2.53.06-3.76.1l-3.7.12-.33-1.95,3.54-1.09c1.22-.38,2.46-.75,3.74-1.12,1.65-.48,3.35-.96,5.15-1.45,19.38-5.26,38.17-8.15,52.91-8.15,1.13,0,2.24.02,3.32.05l.81.46s.24.37.32.5v1.02s-.29.53-.29.53l-.9.5c-.99-.03-2-.04-3.04-.04-14.1,0-31.84,2.65-50.18,7.46.43,0,.86,0,1.29,0,21.61,0,42.01,1.6,58.21,4.49.08.95.13,1.92.13,2.89,0,.06,0,.12,0,.18Z"/>
    </clipPath>
    <clipPath id="clippath-1">
      <path class="cls-3" d="M18.05,28.46v43.69h147.8V28.46H18.05ZM23.32,63.27h-.03s0,.06,0,.06c-.07.11-.14.21-.19.29-.69-.16-1.37-.33-2.03-.5-.17.31-.33.61-.47.91-.05-.01-.1-.02-.15-.04l-.64-.17-.1-.23c.2-.43.42-.87.69-1.31l.19-.32.36.09c.79.21,1.6.41,2.43.61v.1s.1.29.1.29l-.16.22ZM149.44,37.01c-16.13-2.92-36.62-4.55-58.34-4.55-2.97,0-5.96.03-8.87.09-1.2.03-2.4.05-3.56.09-1.13.35-2.25.71-3.37,1.07-16.25,5.26-30.14,11.48-39.87,17.67-.36-.94-.67-1.9-.96-2.87,10.11-6.32,24.1-12.52,39.83-17.62,1.22-.39,2.44-.78,3.68-1.17l.13-.03.13-.02h.14c1.25-.05,2.54-.08,3.84-.11h0s0,0,0,0c2.94-.06,5.93-.09,8.88-.09,21.63,0,42.01,1.6,58.21,4.48.08.96.13,1.92.13,2.9,0,.06,0,.12,0,.18Z"/>
    </clipPath>
    <clipPath id="clippath-2">
      <path class="cls-3" d="M-2,28.69v36.28h85.17V28.69H-2ZM22.01,63.24l-.06.09c-.29-.07-.6-.14-.89-.22-.15.27-.29.53-.42.8l-.17-.04c-.27-.07-.54-.14-.8-.22.21-.45.44-.91.72-1.37l.19-.32.36.09c.51.13,1.04.26,1.57.39-.18.27-.36.53-.51.8ZM78.82,32.46c-1.27.39-2.52.79-3.76,1.19-16,5.19-29.9,11.45-39.66,17.65-.33-.88-.63-1.78-.9-2.69,8.73-5.47,20.45-10.9,34.06-15.66-12.31.67-24.01,1.91-34,3.61l-.83-.24-.1-.09-.33-.8c.01-.24.03-.48.05-.72l.83-.9c11.54-1.97,25.38-3.32,40.02-3.9h.21s0,0,0,0h0c1.31-.05,2.63-.1,3.96-.14l2.77-.08.32,1.96-2.65.82Z"/>
    </clipPath>
  </defs>
  <g id="Layer_1-2" data-name="Layer 1">
    <circle class="cls-8" cx="142.27" cy="3.67" r="3.17"/>
    <line class="cls-1" x1="25.06" y1="18.57" x2="32.26" y2="18.57"/>
    <line class="cls-1" x1="128.93" y1="89.71" x2="136.06" y2="89.71"/>
    <line class="cls-1" x1="132.5" y1="83.95" x2="132.5" y2="95.47"/>
    <line class="cls-4" x1="35.75" y1="83.28" x2="55.78" y2="83.28"/>
    <g>
      <g>
        <path class="cls-2" d="M162.96,38.5c-16.59-4.59-42.61-7.54-71.87-7.54-4.3,0-8.54.06-12.68.19,2.88-.89,5.83-1.74,8.84-2.56,40.52-10.99,75.87-10.67,78.96.71.74,2.74-.45,5.87-3.25,9.2Z"/>
        <path class="cls-6" d="M162.96,38.5c-8.76,10.4-33.28,22.73-63.66,31.07-2.7.05-5.44.08-8.21.08-28.33,0-53.63-2.77-70.27-7.11,5.97-9.99,28.43-22.41,57.59-31.39,4.14-.13,8.38-.19,12.68-.19,29.26,0,55.28,2.95,71.87,7.54Z"/>
        <path class="cls-5" d="M78.41,31.15c-29.16,8.98-51.62,21.4-57.59,31.39C8.04,59.2.38,54.94.38,50.3c0-9.76,33.94-17.84,78.04-19.15Z"/>
      </g>
      <g>
        <path class="cls-12" d="M73.44,89.92c-.8-.54-8.08-5.46-15.67-12.02-10.09-8.73-23.52-22.46-23.52-40.85,0-17.37,14.13-31.5,31.5-31.5,10.04,0,19.32,4.7,25.26,12.68,5.93-8.12,15.28-12.9,25.42-12.9,17.37,0,31.5,14.13,31.5,31.5,0,18.23-12.62,31.48-23.62,40.99-7.61,6.58-14.96,11.55-15.78,12.1l-17.55,11.78-17.55-11.78Z"/>
        <path class="cls-9" d="M116.44,6.84c16.57,0,30,13.43,30,30,0,17.62-12.35,30.55-23.1,39.85-7.53,6.51-14.82,11.45-15.63,11.99l-16.72,11.22-16.72-11.22c-.8-.54-8.05-5.44-15.53-11.91-9.87-8.54-23-21.94-23-39.71,0-16.57,13.43-30,30-30,10.61,0,19.94,5.51,25.27,13.83,5.31-8.44,14.71-14.05,25.41-14.05M116.44,3.84c-9.97,0-19.2,4.41-25.44,11.97-6.23-7.42-15.4-11.75-25.25-11.75-18.2,0-33,14.8-33,33s13.72,33.06,24.03,41.98c7.66,6.62,15.01,11.59,15.82,12.13l16.71,11.22,1.67,1.12,1.67-1.12,16.72-11.22c.82-.55,8.24-5.57,15.92-12.21,11.24-9.72,24.14-23.29,24.14-42.12S134.64,3.84,116.44,3.84h0Z"/>
      </g>
      <polyline class="cls-7" points="46.13 47.48 57.12 47.48 61.53 36.67 67.29 63.93 70.75 47.48 72.58 53.15 76.04 40.54 79.11 50.89 81.13 45.83 84.2 55.98 89.88 37.69 93.33 50.3 96.39 45.22 98.6 52.93 101.68 44.4 104.53 59.66 108.07 43.47 111.24 52.95 118.22 36.67 120.8 46.23 122.63 52.95 125.28 47.48 136.06 47.48"/>
      <line class="cls-1" x1="28.66" y1="13.45" x2="28.66" y2="24.97"/>
      <path class="cls-2" d="M91.09,69.65c2.77,0,5.51-.03,8.21-.08-.29.08-.58.16-.87.24-40.53,10.99-75.88,10.67-78.97-.71-.54-2-.05-4.22,1.36-6.56,16.64,4.34,41.94,7.11,70.27,7.11Z"/>
      <g class="cls-13">
        <path class="cls-2" d="M162.96,38.5c-16.59-4.59-42.61-7.54-71.87-7.54-4.3,0-8.54.06-12.68.19,2.88-.89,5.83-1.74,8.84-2.56,40.52-10.99,75.87-10.67,78.96.71.74,2.74-.45,5.87-3.25,9.2Z"/>
      </g>
      <g class="cls-10">
        <path class="cls-6" d="M162.96,38.5c-8.76,10.4-33.28,22.73-63.66,31.07-2.7.05-5.44.08-8.21.08-28.33,0-53.63-2.77-70.27-7.11,5.97-9.99,28.43-22.41,57.59-31.39,4.14-.13,8.38-.19,12.68-.19,29.26,0,55.28,2.95,71.87,7.54Z"/>
      </g>
      <g class="cls-11">
        <path class="cls-5" d="M78.41,31.15c-29.16,8.98-51.62,21.4-57.59,31.39C8.04,59.2.38,54.94.38,50.3c0-9.76,33.94-17.84,78.04-19.15Z"/>
      </g>
      <path class="cls-2" d="M181.81,50.3c0,10.1-36.25,18.39-82.51,19.27,30.38-8.34,54.9-20.67,63.66-31.07,11.82,3.26,18.85,7.36,18.85,11.8Z"/>
      <circle class="cls-8" cx="24.94" cy="37.7" r="5.69"/>
      <line class="cls-4" x1="45.77" y1="69.07" x2="45.77" y2="103.25"/>
      <circle class="cls-8" cx="146.44" cy="70.91" r="9.68"/>
    </g>
  </g>
</svg>