<?xml version="1.0" encoding="UTF-8"?>
<svg id="Layer_2" data-name="Layer 2" xmlns="http://www.w3.org/2000/svg" xmlns:xlink="http://www.w3.org/1999/xlink" viewBox="0 0 110.0795 127.18793">
  <defs>
    <style>
      .cls-1 {
        fill: #f7eef5;
      }

      .cls-2 {
        fill: #574e75;
        stroke: #3f3144;
      }

      .cls-2, .cls-3, .cls-4, .cls-5 {
        stroke-miterlimit: 10;
      }

      .cls-3 {
        stroke: #d5c1de;
        stroke-linecap: round;
      }

      .cls-3, .cls-5 {
        fill: none;
      }

      .cls-4 {
        fill: url(#radial-gradient);
        stroke: #59506f;
        stroke-width: 2px;
      }

      .cls-5 {
        stroke: #6a5f82;
      }

      .cls-6 {
        fill: #d6c5e1;
      }
    </style>
    <radialGradient id="radial-gradient" cx="55.03975" cy="55.03975" fx="55.03975" fy="55.03975" r="54.03975" gradientUnits="userSpaceOnUse">
      <stop offset=".02647" stop-color="#796c8d"/>
      <stop offset=".40437" stop-color="#a292b2"/>
      <stop offset=".62059" stop-color="#b5a4c4"/>
      <stop offset=".63336" stop-color="#b6a5c5"/>
      <stop offset=".75706" stop-color="#c3b2d4"/>
      <stop offset=".85882" stop-color="#c8b7da"/>
      <stop offset=".88431" stop-color="#c2b2d5"/>
      <stop offset=".91593" stop-color="#b3a3c6"/>
      <stop offset=".9508" stop-color="#9a8caf"/>
      <stop offset=".98778" stop-color="#776b8e"/>
      <stop offset="1" stop-color="#6a5f82"/>
    </radialGradient>
  </defs>
  <g id="Layer_1-2" data-name="Layer 1">
    <g>
      <circle class="cls-4" cx="55.03975" cy="55.03975" r="54.03975"/>
      <path class="cls-2" d="M96.20247,117.43762l-9.98253-18.25783H24.32844l-10.42364,18.52545c-1.03092,1.8322-.43721,4.44406,1.61901,5.07714,17.06588,5.25426,63.84909,5.26543,79.08421-.32135,1.98154-.72663,2.58456-3.2125,1.59444-5.02341Z"/>
      <path class="cls-6" d="M100.67028,36.03983c-2.50769-5.27527-19.97011-2.44365-25.06485-1.71603-17.44318,2.94488-34.55335,8.23927-50.60632,15.66566-4.22605,2.05939-21.13231,10.09224-18.97825,15.5255,3.96024,4.75754,19.31711,3.10203,25.22331,2.48201,17.50851-2.28905,34.76627-7.3521,50.52111-15.37367,4.84182-2.55827,19.72286-10.57654,18.905-16.58347h0ZM101.34655,35.83268c.79127,4.201-4.9519,8.22274-7.84354,10.50926-17.97355,12.34024-40.65042,19.60833-62.14557,22.57192-30.44273,3.7071-37.34206-5.59801-6.65844-19.57104,8.08969-3.68812,16.46664-6.68653,24.95566-9.26991,12.72925-3.81837,25.776-7.1333,39.11351-7.74071,3.64882.03951,10.86295-.43137,12.57839,3.50048h0Z"/>
      <path class="cls-6" d="M91.52526,38.29117c-2.14189-4.12853-16.22238-1.68838-20.35855-1.09689-14.15289,2.47148-28.04273,6.74568-41.12536,12.68288-23.96465,11.20354-19.24466,16.97704,4.89173,14.16115,14.21597-1.93574,28.18114-6.16309,41.03801-12.54113,3.87276-2.01773,16.20608-8.48311,15.55417-13.20602h0ZM92.13317,38.10489c.89178,5.25347-11.79947,11.80773-15.87042,13.96874-12.92947,6.43772-26.93309,10.70061-41.23771,12.67307-24.86286,3.18091-30.27809-4.11803-5.22816-15.40389,13.20125-5.81594,27.09328-10.06903,41.27887-12.68034,4.34987-.64449,19.12756-3.32146,21.05742,1.44241h0Z"/>
      <path class="cls-6" d="M82.89782,40.8378c-1.87888-3.72304-13.16173-1.90494-16.79435-1.40521-11.35573,1.92415-22.50835,5.36254-32.98009,10.15524-19.27063,9.10726-13.95352,14.27925,4.59437,12.07239,11.3985-1.55187,22.58904-5.01129,32.92474-10.05411,3.32054-1.76882,12.74243-6.5614,12.25533-10.7683h0ZM83.35045,40.69913c.76286,4.52678-9.04545,9.50455-12.48688,11.34678-10.39834,5.08556-21.60762,8.56352-33.079,10.13978-19.08835,2.45199-24.87407-3.79172-4.84245-12.98732,5.26185-2.42173,10.7262-4.3535,16.2472-6.06456,8.2839-2.51472,16.79711-4.66476,25.49046-4.99581,2.59825.05238,7.4481-.22488,8.67067,2.56112h0Z"/>
      <g>
        <path class="cls-1" d="M67.69745,54.16081c-10.42399,1.74918-11.42406,3.16717-12.65771,17.94731-1.23365-14.78014-2.23371-16.19813-12.65771-17.94731,10.42399-1.74918,11.42406-3.16717,12.65771-17.94731,1.23365,14.78014,2.23371,16.19813,12.65771,17.94731Z"/>
        <path class="cls-5" d="M67.69745,54.16081c-10.42399,1.74918-11.42406,3.16717-12.65771,17.94731-1.23365-14.78014-2.23371-16.19813-12.65771-17.94731,10.42399-1.74918,11.42406-3.16717,12.65771-17.94731,1.23365,14.78014,2.23371,16.19813,12.65771,17.94731Z"/>
      </g>
      <path class="cls-3" d="M20.64418,105.45414c22.82727,4.83392,45.86072,4.83392,69.10034,0"/>
      <path class="cls-3" d="M18.07203,110.11801c22.82727,4.83392,51.14647,5.30521,74.38609.47129"/>
    </g>
  </g>
</svg>