<?xml version="1.0" encoding="UTF-8"?>
<svg id="Layer_2" data-name="Layer 2" xmlns="http://www.w3.org/2000/svg" viewBox="0 0 185.15 183.92">
  <defs>
    <style>
      .cls-1, .cls-2, .cls-3 {
        fill: #7e7193;
      }

      .cls-4 {
        stroke-dasharray: 30.47 3.05 20.31 5.08;
      }

      .cls-4, .cls-5, .cls-6, .cls-7, .cls-8, .cls-9, .cls-10, .cls-11, .cls-12, .cls-2, .cls-13, .cls-14, .cls-15, .cls-16, .cls-17, .cls-3, .cls-18 {
        stroke-miterlimit: 10;
      }

      .cls-4, .cls-5, .cls-6, .cls-8, .cls-11, .cls-12, .cls-13, .cls-14, .cls-15, .cls-17 {
        fill: none;
      }

      .cls-4, .cls-8, .cls-11, .cls-13, .cls-14 {
        stroke: #d5c1de;
      }

      .cls-4, .cls-11, .cls-13, .cls-14 {
        stroke-width: .75px;
      }

      .cls-5, .cls-9, .cls-2, .cls-15 {
        stroke-width: 2px;
      }

      .cls-5, .cls-12, .cls-16 {
        stroke: #d6c5e1;
      }

      .cls-6, .cls-2 {
        stroke: #59506f;
      }

      .cls-7 {
        fill: #fff;
        stroke: #fff;
      }

      .cls-9, .cls-15, .cls-17, .cls-3, .cls-18 {
        stroke: #7e7193;
      }

      .cls-9, .cls-16, .cls-19 {
        fill: #d6c5e1;
      }

      .cls-10 {
        fill: #231f20;
        stroke: #231f20;
      }

      .cls-20, .cls-18 {
        fill: #f7eef5;
      }

      .cls-11 {
        stroke-dasharray: 42.52 4.72;
      }

      .cls-13 {
        stroke-dasharray: 39.93 9.98 19.97 4.99;
      }

      .cls-14 {
        stroke-dasharray: 48.5 4.85;
      }

      .cls-21 {
        fill: #59506f;
      }
    </style>
  </defs>
  <g id="Layer_1-2" data-name="Layer 1">
    <g>
      <path class="cls-5" d="M26.83,95.41c-.45-1.94-2.62-3.39-2.29-5.65,1.41.79,1.95,4.19,2.29,5.65Z"/>
      <path class="cls-5" d="M23.53,84.68l.69,2.11c0-.26-.01-.52-.02-.78.45,1.2.9,2.4,1.34,3.6.07-1.54-.11-3.09-.53-4.58.02,1.56.04,3.13.06,4.69-.63-.83-.96-1.88-.92-2.93.05.35.16.7.33,1.01"/>
      <path class="cls-12" d="M22.15,44.58l-1.81.85c.03-.54.22-1.07.54-1.51.19-.13.47-.03.6.16s.16.43.18.66c.03.29.05.58.08.88.02.19.03.38-.05.55s-.31.27-.47.16c-.06-.26-.11-.54-.04-.81s.32-.49.59-.46c.22.02.39.21.53.39.4.53.73,1.12.97,1.74-.32-.21-.54-.56-.58-.94"/>
      <circle class="cls-11" cx="87.53" cy="81.33" r="52.65" transform="translate(-11.9 15.07) rotate(-9.22)"/>
      <circle class="cls-13" cx="87.53" cy="81.33" r="59.59" transform="translate(-21.1 131.08) rotate(-67.5)"/>
      <circle class="cls-14" cx="87.53" cy="81.33" r="67.93"/>
      <circle class="cls-4" cx="87.53" cy="81.33" r="75" transform="translate(-31.87 85.72) rotate(-45)"/>
      <path class="cls-3" d="M151.68,100.51c-3.31,8.07-8.61,16.32-15.07,22.54-10.34,10.28-27.69,17.31-38.21,5.54-.13-.14-.25-.3-.37-.45-5.71-7.55-7.99-14.83-9.85-25.06-.23-1.29-.54-3.41-.68-4.71-.69-6.71-2.01-13.38,1.54-19.27,1.18-1.82.99-5.88,1.33-8.04,1.13-7.28.83-18.68,4-23.61.67-1.04,1.72-1.83,2.94-2.1,3.12-.69,5.47,2.04,7.78,5.24,4.13,5.74,10.56,9.39,17.56,9.8.05,0,.1,0,.15,0,7.93.44,15.42-2.39,22.22-6.77.12-.08.23-.16.34-.24,2.33-1.76,4.55-3,7.16-2.23l.12.05"/>
      <path class="cls-2" d="M151.68,100.6c-3.31,8.07-8.61,16.32-15.07,22.54-10.34,10.28-27.69,17.31-38.21,5.54-.13-.14-.25-.3-.37-.45-5.71-7.55-7.99-14.83-9.85-25.06-.23-1.29-.54-3.41-.68-4.71-.69-6.71-2.01-13.38,1.54-19.27,1.18-1.82.99-5.88,1.33-8.04,1.13-7.28.83-18.68,4-23.61.67-1.04,1.72-1.83,2.94-2.1,3.12-.69,5.47,2.04,7.78,5.24,4.13,5.74,10.56,9.39,17.56,9.8.05,0,.1,0,.15,0,7.93.44,15.42-2.39,22.22-6.77.12-.08.23-.16.34-.24,2.33-1.76,4.55-3,7.16-2.23l.12.05"/>
      <path class="cls-16" d="M141,87.31c1.24-2.34,1.64-5.11.61-7.54-1.2-2.83-3.91-5.14-7.66-6.08-5.66-1.41-13.18-1.1-14.85,5.73-.3,1.25-.27,5.43-.04,6.7,1.74,9.45,1.98,12.91,7.49,16.16,6.1,3.6,15.05,1.27,15.9-4.36.26-1.75.13-2.42-.39-3.68-2.24-5.42-1.71-5.7-1.06-6.93Z"/>
      <path class="cls-16" d="M111.88,76.43c0,.72,0,1.42-.1,2.13-.9,5.94-2.49,8.32-6.24,12.09-2.37,2.18-4.59,3.59-7.26,3.63-3.38-.06-6.88-2.21-7.96-5.64-2.1-6.67.58-8.15,3.13-12.34,1.45-2.38-.19-4.1,2.97-7.52,2.08-2.25,5.64-2.81,8.83-1.91,3.95,1.12,6.58,5.07,6.63,9.56h0Z"/>
      <path class="cls-10" d="M136.35,89.88s-12.79,9.62-15.6-4.64c5.2,4.32,7.86,5.35,15.6,4.64Z"/>
      <path class="cls-10" d="M94.62,80.25s5.28,11,13.54,1.96c-6.57,1.39-6.66,1.59-13.54-1.96Z"/>
      <path class="cls-19" d="M111.03,83.12c-1.57,6.21-4.72,11.97-9.02,16.7,0,0-.05-.63-.05-.63,1.1.93,2.46,1.63,3.85,2.23,1.4.6,2.84,1.14,4.25,1.75-3.13-.81-6.42-1.42-9.01-3.57,3.09-3.79,5.89-7.76,7.98-12.18,0,0,2.01-4.31,2.01-4.31h0Z"/>
      <path class="cls-9" d="M26.21,99.59c3.79,9.61,8.25,17.83,15.8,25.3,12.15,12.43,30.78,23.75,43.45,9.58,7.17-9.11,10.01-17.89,12.42-30.45.29-1.49.53-2.99.7-4.5.92-8.09,2.72-16.11-1.46-23.28-1.36-2.18-1.08-6.99-1.44-9.54-1.35-9.61-.52-25.23-5.75-29.72-4.73-2.85-8.07.8-11.34,5.22-4.99,6.73-12.67,10.95-20.97,11.33-.06,0-.12,0-.18,0-9.49.39-18.38-3.15-26.42-8.53-2.81-2.21-5.46-3.81-8.64-2.92l-.14.05"/>
      <path class="cls-3" d="M37.67,79.36c-1.05-5.94,3.13-12.37,10.68-13.51,6.76-1.02,16.15-.3,17.53,7.67.28,1.61.06,3.26-.38,4.83-3.1,10.94-2.72,20.13-11.64,22.06-8.2,1.77-18.13,1.01-19.14-5.66-.24-1.6.16-3.24.92-4.67,4.34-8.18,2.65-7.25,2.03-10.73Z"/>
      <path class="cls-3" d="M73.2,72.79c-.09.85-.17,1.67-.12,2.52.39,7.11,2,10.09,6,14.97,2.55,2.84,5.01,4.75,8.15,5.11,3.99.31,8.36-1.83,10.02-5.76,3.23-7.63.24-9.68-2.3-14.91-1.44-2.98.69-4.81-2.65-9.21-2.2-2.89-6.33-3.95-10.2-3.24-4.79.88-8.34,5.24-8.9,10.52h0Z"/>
      <path class="cls-10" d="M42.1,85.37s8.89-16.76,19.07-2.87c-7.76-2.02-11.12-1.79-19.07,2.87Z"/>
      <path class="cls-10" d="M93.12,77.48s-9.76-10.66-16.03,2.41c6.98-3.84,7.01-4.08,16.03-2.41Z"/>
      <line class="cls-17" x1="100.8" y1="95.78" x2="100.8" y2="95.78"/>
      <path class="cls-12" d="M20.34,47.48c-.87-.94.13-2.73,1.4-2.64s2.09,1.71,1.55,2.88c-1.16-.16-2.39-.68-2.88-1.75s.24-2.64,1.41-2.56c.55.81.56,1.96.01,2.77s-1.6,1.25-2.56,1.05c.02-.33.05-.65.07-.98"/>
      <path class="cls-15" d="M22.75,41.97c-12.91,3.6-1.03,46.22,3.66,58.11"/>
      <path class="cls-1" d="M72.76,79.21c2.2,7.17,5.27,13.98,9.56,20.17,0,0,.25.38.25.38l-.36.24c-3.21,2-6.94,2.35-10.55,2.98,1.74-.54,3.5-1,5.22-1.54,1.71-.53,3.41-1.2,4.82-2.18l-.11.62c-4.51-6.07-7.58-13.2-8.82-20.67h0Z"/>
      <path class="cls-10" d="M88.68,104.55c-5.99,6.73-26.09,9.86-34.6,4.82,10.33,14.81,30.66,10.72,34.6-4.82Z"/>
      <path class="cls-9" d="M28.09,58.86c.39,3.32.41,4.64.43,5.42.14,4.61-.38,8.56-.85,10.35-2.02,7.61-3.22,9.86-4.07,11.45-2.14,4.43-5.07-16.28-5.62-19-1.02-5.01-1.62-11.58-.12-17.14.69-2.56,2.5-3.04,4.37-2.56,2.35.61,4.66,4.2,5,6.61l.87,4.87Z"/>
      <path class="cls-1" d="M40.53,117.38c6.32,7.3,13.44,13.92,21.57,19.16-8.5-4.67-15.77-11.43-21.57-19.16h0Z"/>
      <path class="cls-1" d="M61.42,120.4c6.19,2.88,13.85,3.48,19.96.12,2-1.12,3.72-2.71,5.08-4.63-.28.51-.57,1.03-.87,1.54-5.24,7.71-16.97,8-24.17,2.97h0Z"/>
      <path class="cls-2" d="M152.21,51.06c12.31,4.45,3.9,40.01-.53,49.44"/>
      <path class="cls-10" d="M118.36,120.38c-4.77-7.39-17.1-10.22-21.55-6.84,6.46-10.28,19.23-8.66,21.55,6.84Z"/>
      <path class="cls-19" d="M115.14,122.55c-3.96-4.32-10.54-7.12-16.09-4.21,4.98-4.4,13.28-1.19,16.09,4.21h0Z"/>
      <path class="cls-7" d="M135.36,94.11c-3.58,13.36-2.68,15.78-.16,17.11.16.09-.17-.06,0,0,2.52.9,4.78-1.01,4.64-3.78-.25-4.73-4.48-13.33-4.48-13.33Z"/>
      <g>
        <path class="cls-21" d="M24.47,28.28c-8.22,1.39-9.34,2.52-10.73,10.73-1.39-8.22-2.52-9.34-10.73-10.73,8.22-1.39,9.34-2.52,10.73-10.73,1.39,8.22,2.52,9.34,10.73,10.73Z"/>
        <path class="cls-6" d="M24.47,28.28c-8.22,1.39-9.34,2.52-10.73,10.73-1.39-8.22-2.52-9.34-10.73-10.73,8.22-1.39,9.34-2.52,10.73-10.73,1.39,8.22,2.52,9.34,10.73,10.73Z"/>
      </g>
      <g>
        <path class="cls-20" d="M29.36,21.08c-2.71.9-3.43,1.62-4.33,4.33-.9-2.71-1.62-3.43-4.33-4.33,2.71-.9,3.43-1.62,4.33-4.33.9,2.71,1.62,3.43,4.33,4.33Z"/>
        <path class="cls-8" d="M29.36,21.08c-2.71.9-3.43,1.62-4.33,4.33-.9-2.71-1.62-3.43-4.33-4.33,2.71-.9,3.43-1.62,4.33-4.33.9,2.71,1.62,3.43,4.33,4.33Z"/>
      </g>
      <path class="cls-18" d="M159.01,42.59c21.43,39.52,6.76,88.94-32.76,110.37-39.52,21.43-88.94,6.76-110.37-32.76-13.2-24.34-12.69-52.42-1.13-75.42C-1.35,71.62-3.25,106.02,12.74,135.53c24.08,44.41,79.61,60.89,124.02,36.81,44.41-24.08,60.89-79.61,36.81-124.02C157.57,18.82,127.7,1.65,96.42.5c25.58,2.86,49.39,17.75,62.59,42.09Z"/>
    </g>
  </g>
</svg>