<?xml version="1.0" encoding="UTF-8"?>
<svg id="Layer_2" data-name="Layer 2" xmlns="http://www.w3.org/2000/svg" viewBox="0 0 183.98 183.92">
  <defs>
    <style>
      .cls-1, .cls-2, .cls-3 {
        fill: #7e7193;
      }

      .cls-4 {
        stroke-dasharray: 30.47 3.05 20.31 5.08;
      }

      .cls-4, .cls-5, .cls-6, .cls-7, .cls-8, .cls-9, .cls-10, .cls-11, .cls-12, .cls-2, .cls-13, .cls-14, .cls-15, .cls-16, .cls-17, .cls-18, .cls-3 {
        stroke-miterlimit: 10;
      }

      .cls-4, .cls-5, .cls-6, .cls-8, .cls-11, .cls-12, .cls-13, .cls-15, .cls-16, .cls-18 {
        fill: none;
      }

      .cls-4, .cls-8, .cls-11, .cls-13, .cls-15 {
        stroke: #d5c1de;
      }

      .cls-4, .cls-11, .cls-13, .cls-15 {
        stroke-width: .75px;
      }

      .cls-5, .cls-9, .cls-2, .cls-16 {
        stroke-width: 2px;
      }

      .cls-5, .cls-12, .cls-17 {
        stroke: #d6c5e1;
      }

      .cls-6, .cls-2 {
        stroke: #59506f;
      }

      .cls-7 {
        fill: #fff;
        stroke: #fff;
      }

      .cls-9, .cls-16, .cls-18, .cls-3 {
        stroke: #7e7193;
      }

      .cls-9, .cls-17, .cls-19 {
        fill: #d6c5e1;
      }

      .cls-10 {
        fill: #231f20;
        stroke: #231f20;
      }

      .cls-20 {
        fill: #f7eef5;
      }

      .cls-11 {
        stroke-dasharray: 42.52 4.72;
      }

      .cls-13 {
        stroke-dasharray: 39.93 9.98 19.97 4.99;
      }

      .cls-14 {
        fill: #aca2b8;
        stroke: #6a5f82;
      }

      .cls-15 {
        stroke-dasharray: 48.5 4.85;
      }

      .cls-21 {
        fill: #59506f;
      }
    </style>
  </defs>
  <g id="Layer_1-2" data-name="Layer 1">
    <g>
      <circle class="cls-11" cx="97.7" cy="80.74" r="52.65" transform="translate(-11.67 16.69) rotate(-9.22)"/>
      <circle class="cls-13" cx="97.7" cy="80.74" r="59.59"/>
      <circle class="cls-15" cx="97.7" cy="80.74" r="67.93"/>
      <circle class="cls-4" cx="97.7" cy="80.74" r="75" transform="translate(7.73 170.01) rotate(-84.35)"/>
      <line class="cls-18" x1="104.18" y1="100.06" x2="104.18" y2="100.06"/>
      <g>
        <path class="cls-5" d="M29.57,57.34c.11-.09-.19.03-.31-.03s.39-.18.45-.3c.6-1.15.33.72,1.11-.32-.14.71.28-.02-.16.56-.41.54-1.37.16-1.58-.49s.95.49,1.22-.13c.19.37-.5-1.06-.55-.65s-.52,1.14-.91.98c-.31-.13-.73.76-.38-1.21.03-.18.01-.36.09-.53.3-.67,1.5-.41,1.61.32s1.05,1.36.34,1.19c.49-.17-.8-.35-.31-.52"/>
        <g>
          <path class="cls-9" d="M36.29,102.86c3.72,8.07,7.95,14.91,14.8,20.96,11.04,10.09,27.58,18.9,37.77,6.12,5.71-8.17,7.72-15.85,9.19-26.75.17-1.29.31-2.59.39-3.9.4-6.99,1.56-13.97-2.38-19.93-1.28-1.81-1.27-5.95-1.7-8.13-1.62-8.19-1.67-21.64-6.38-25.24-4.2-2.22-6.89,1.08-9.49,5.04-3.96,6.02-10.35,10.02-17.46,10.74-.05,0-.1.01-.16.02-8.13.8-15.94-1.82-23.1-6.05-2.52-1.76-4.88-3-7.56-2.08l-.12.05"/>
          <path class="cls-3" d="M45.14,84.93c-1.19-5.05,2.09-10.77,8.52-12.12,5.76-1.2,13.86-1.04,15.42,5.74.32,1.37.21,2.8-.1,4.17-2.13,9.54-1.36,17.42-8.92,19.5-6.96,1.92-15.52,1.75-16.71-3.93-.28-1.36-.02-2.79.56-4.05,3.33-7.24,1.92-6.35,1.22-9.31Z"/>
          <path class="cls-3" d="M75.34,77.58c-.04.73-.06,1.44.02,2.17.68,6.09,2.21,8.57,5.88,12.56,2.33,2.31,4.53,3.84,7.25,3.99,3.44.07,7.09-1.98,8.33-5.43,2.4-6.71-.26-8.33-2.69-12.69-1.38-2.49.36-4.16-2.73-7.78-2.03-2.38-5.63-3.09-8.92-2.29-4.07.99-6.91,4.91-7.13,9.47h0Z"/>
          <path class="cls-10" d="M49.24,89.88s6.82-14.82,16.24-3.39c-6.76-1.36-9.64-1-16.24,3.39Z"/>
          <path class="cls-10" d="M92.67,80.63s-8.9-8.69-13.65,2.85c5.81-3.63,5.83-3.85,13.65-2.85Z"/>
          <path class="cls-12" d="M33.35,92.73c1.22,1.38,2.13,3.03,2.65,4.8-.45-2.45-.93-4.97-2.24-7.09.24,1.95.63,3.88,1.17,5.76-.74-1.84-1.24-3.77-1.5-5.74.47-.19,1.07.22,1.07.72.11-.29,0-.65-.26-.82-.52-.2-1.12.2-1.31.72s-.09,1.1.07,1.63c.96,3.19,3.64,5.84,3.76,9.16"/>
          <path class="cls-16" d="M30.52,53.55c-10.91,3.72,1.35,39.75,5.96,49.73"/>
          <path class="cls-1" d="M75.27,83.11c2.31,6.03,5.27,11.71,9.24,16.82,0,0,.27.37.27.37l-.35.26c-2.68,1.87-5.87,2.34-8.96,3.02,1.46-.57,2.95-1.06,4.4-1.61,1.44-.55,2.86-1.21,4.01-2.11l-.08.62c-4.19-4.99-7.17-10.98-8.53-17.36h0Z"/>
          <path class="cls-10" d="M90.17,104.09c-4.82,6.07-21.93,9.74-29.48,5.82,9.59,12.22,26.85,7.72,29.48-5.82Z"/>
          <path class="cls-9" d="M35.92,67.8c.5,2.83.57,3.96.63,4.64.35,3.96.09,7.37-.23,8.93-1.36,6.63-2.29,8.62-2.94,10.03-1.62,3.91-5.14-13.73-5.75-16.04-1.12-4.26-1.95-9.87-.94-14.72.47-2.23,2-2.73,3.63-2.41,2.05.41,4.21,3.38,4.62,5.43l.98,4.14Z"/>
          <path class="cls-18" d="M30.32,58.23c2.05.41,3.54,2.16,4.62,5.43l.9,3.81"/>
          <path class="cls-1" d="M49.45,117.45c5.83,5.94,12.23,11.25,19.45,15.4-7.54-3.54-14.14-9.02-19.45-15.4h0Z"/>
          <path class="cls-1" d="M67.53,119.02c7.2,2.86,16.86,1.96,21.28-5.09-3.2,8.1-14.59,9.45-21.28,5.09h0Z"/>
        </g>
      </g>
      <g>
        <path class="cls-20" d="M176.54,23.01c-8.22,1.39-9.34,2.52-10.73,10.73-1.39-8.22-2.52-9.34-10.73-10.73,8.22-1.39,9.34-2.52,10.73-10.73,1.39,8.22,2.52,9.34,10.73,10.73Z"/>
        <path class="cls-8" d="M176.54,23.01c-8.22,1.39-9.34,2.52-10.73,10.73-1.39-8.22-2.52-9.34-10.73-10.73,8.22-1.39,9.34-2.52,10.73-10.73,1.39,8.22,2.52,9.34,10.73,10.73Z"/>
      </g>
      <g>
        <path class="cls-21" d="M159.98,14.91c-2.71.9-3.43,1.62-4.33,4.33-.9-2.71-1.62-3.43-4.33-4.33,2.71-.9,3.43-1.62,4.33-4.33.9,2.71,1.62,3.43,4.33,4.33Z"/>
        <path class="cls-6" d="M159.98,14.91c-2.71.9-3.43,1.62-4.33,4.33-.9-2.71-1.62-3.43-4.33-4.33,2.71-.9,3.43-1.62,4.33-4.33.9,2.71,1.62,3.43,4.33,4.33Z"/>
      </g>
      <path class="cls-14" d="M26.14,42.59c-21.43,39.52-6.76,88.94,32.76,110.37,39.52,21.43,88.94,6.76,110.37-32.76,13.2-24.34,12.69-52.42,1.13-75.42,16.1,26.84,18.01,61.24,2.01,90.75-24.08,44.41-79.61,60.89-124.02,36.81C3.98,148.26-12.5,92.73,11.58,48.32,27.58,18.82,57.45,1.65,88.73.5c-25.58,2.86-49.39,17.75-62.59,42.09Z"/>
      <path class="cls-2" d="M161.36,96.73c-3.99,9.09-10.24,18.34-17.77,25.24-12.04,11.42-31.98,18.94-43.64,5.26-.14-.17-.28-.35-.41-.52-6.29-8.75-8.69-17.1-10.52-28.79-.23-1.47-.52-3.89-.64-5.38-.6-7.66-1.92-15.28,2.28-21.89,1.39-2.04,1.29-6.67,1.73-9.11,1.48-8.25,1.45-21.23,5.2-26.76.79-1.17,2.01-2.04,3.4-2.31,3.57-.7,6.17,2.47,8.71,6.18,4.54,6.65,11.76,10.98,19.72,11.64.06,0,.12,0,.18.01,9.01.72,17.61-2.3,25.47-7.1.14-.08.27-.17.4-.27,2.7-1.94,5.26-3.29,8.21-2.34l.14.06.65.27c12.15,7.14,2.05,45.39-3.09,55.7"/>
      <path class="cls-17" d="M149.57,81.31c1.48-2.63,2-5.77.9-8.57-1.28-3.26-4.3-5.96-8.55-7.12-6.41-1.76-14.97-1.61-17.05,6.11-.38,1.41-.46,6.18-.23,7.62,1.72,10.81,1.89,14.74,8.08,18.6,6.84,4.26,17.09,1.86,18.21-4.52.35-1.98.22-2.75-.34-4.2-2.4-6.23-1.79-6.53-1.01-7.91Z"/>
      <path class="cls-17" d="M115.73,69.13c-.01.82-.03,1.61-.17,2.42-1.19,6.74-3.06,9.4-7.44,13.59-2.76,2.41-5.32,3.96-8.36,3.94-3.84-.16-7.76-2.71-8.9-6.64-2.21-7.65.88-9.26,3.9-13.96,1.72-2.67-.11-4.67,3.58-8.48,2.43-2.51,6.49-3.05,10.1-1.93,4.47,1.39,7.35,5.95,7.29,11.06h0Z"/>
      <path class="cls-10" d="M144.2,84.12s-14.82,10.6-17.62-5.7c5.8,5.06,8.79,6.3,17.62,5.7Z"/>
      <path class="cls-10" d="M95.97,73s5.71,12.66,15.36,2.61c-7.52,1.41-7.63,1.62-15.36-2.61Z"/>
      <path class="cls-19" d="M115.57,75.73c-2.02,7-5.76,13.45-10.77,18.72,0,0-.04-.63-.04-.63,1.23,1.09,2.77,1.92,4.34,2.63,1.58.71,3.21,1.35,4.8,2.07-3.38-1-6.89-1.77-9.74-4.04,0,0-.33-.28-.33-.28l.29-.35c4.8-5.41,8.5-11.55,11.44-18.13h0Z"/>
      <path class="cls-10" d="M122.9,118.33c-5.22-8.54-19.18-12.1-24.34-8.37,7.63-11.53,22.12-9.33,24.34,8.37Z"/>
      <path class="cls-19" d="M119.17,120.7c-4.31-5.1-11.83-8.49-18.19-5.23,5.83-4.77,15.06-.92,18.19,5.23h0Z"/>
      <path class="cls-7" d="M142.96,88.9c-4.44,15.1-3.48,17.89-.65,19.46.19.1-.19-.07,0,0,2.84,1.09,5.47-1.01,5.38-4.17-.16-5.39-4.73-15.29-4.73-15.29Z"/>
    </g>
  </g>
</svg>