<?xml version="1.0" encoding="UTF-8"?>
<svg id="Layer_2" data-name="Layer 2" xmlns="http://www.w3.org/2000/svg" viewBox="0 0 174.03 157.18">
  <defs>
    <style>
      .cls-1, .cls-2 {
        fill: #7e7193;
      }

      .cls-3, .cls-4, .cls-5, .cls-6, .cls-2, .cls-7, .cls-8, .cls-9, .cls-10, .cls-11, .cls-12, .cls-13, .cls-14, .cls-15, .cls-16, .cls-17 {
        stroke-miterlimit: 10;
      }

      .cls-3, .cls-5, .cls-6, .cls-8, .cls-10, .cls-16 {
        stroke: #59506f;
      }

      .cls-3, .cls-6, .cls-7, .cls-11, .cls-12, .cls-13, .cls-14, .cls-15 {
        fill: none;
      }

      .cls-3, .cls-2, .cls-12, .cls-15, .cls-16 {
        stroke-width: 2px;
      }

      .cls-4 {
        stroke: #f7eef5;
      }

      .cls-4, .cls-7 {
        stroke-linecap: round;
      }

      .cls-4, .cls-18 {
        fill: #f7eef5;
      }

      .cls-5 {
        fill: #59506f;
      }

      .cls-2, .cls-7, .cls-12, .cls-14 {
        stroke: #7e7193;
      }

      .cls-7 {
        stroke-width: .5px;
      }

      .cls-19, .cls-10, .cls-16 {
        fill: #aba3c1;
      }

      .cls-8, .cls-9 {
        fill: #6a5f82;
      }

      .cls-9, .cls-11, .cls-17 {
        stroke: #aba3c1;
      }

      .cls-13 {
        stroke: #6a5f82;
      }

      .cls-15 {
        stroke: #d5c1de;
      }

      .cls-17 {
        fill: #c8b7da;
      }
    </style>
  </defs>
  <g id="Layer_1-2" data-name="Layer 1">
    <g>
      <circle class="cls-8" cx="158.72" cy="28.75" r="13.39"/>
      <line class="cls-7" x1="29.48" y1="70.57" x2="58.09" y2="37.95"/>
      <line class="cls-7" x1="34.59" y1="70.7" x2="58.09" y2="43.54"/>
      <line class="cls-7" x1="40.89" y1="70.06" x2="58.09" y2="50.29"/>
      <polyline class="cls-11" points=".5 73.16 62.84 73.16 62.84 .5"/>
      <rect class="cls-11" x="5.14" y="115.49" width="81.22" height="34.24"/>
      <rect class="cls-9" x="22.61" y="100.56" width="24.66" height="36.9"/>
      <rect class="cls-17" x=".5" y=".5" width="62.34" height="72.66"/>
      <line class="cls-7" x1="1.18" y1="71.94" x2="62.84" y2=".57"/>
      <line class="cls-7" x1="4.95" y1="72.44" x2="62.02" y2="6.25"/>
      <line class="cls-7" x1="9.31" y1="72.6" x2="62.02" y2="11.53"/>
      <line class="cls-7" x1="13.59" y1="72.6" x2="62.09" y2="16.49"/>
      <line class="cls-7" x1="18.49" y1="72.7" x2="62.37" y2="22"/>
      <line class="cls-7" x1="23.44" y1="72.7" x2="62.66" y2="28.19"/>
      <line class="cls-7" x1="27.69" y1="73.44" x2="62.09" y2="34.27"/>
      <path class="cls-5" d="M149.62,55.03l7.63,2.97c2.71,1.06,4.5,3.67,4.5,6.58v34.69c0,2.02-.87,3.95-2.38,5.29l-9.63,8.52"/>
      <path class="cls-16" d="M62.32,132.03v16.34c0,4.31,19.27,7.81,43.04,7.81s43.04-3.5,43.04-7.81v-16.34H62.32Z"/>
      <ellipse class="cls-16" cx="105.35" cy="132.03" rx="43.04" ry="7.87"/>
      <g>
        <path class="cls-19" d="M119.28,42.42c8.77.57,17.6,2.22,26.47,4.6.78.21,1.54.55,2.21,1.1,1.9,1.56,3.45,4.39,3.62,8.13.38,16.61.58,33.19.59,49.74-.05,1.81-.55,3.43-1.24,4.79-.88,1.73-2.26,3.16-3.76,4.09-7.53,4.88-14.98,9.52-22.32,13.3"/>
        <path class="cls-3" d="M119.28,42.42c8.77.57,17.6,2.22,26.47,4.6.78.21,1.54.55,2.21,1.1,1.9,1.56,3.45,4.39,3.62,8.13.38,16.61.58,33.19.59,49.74-.05,1.81-.55,3.43-1.24,4.79-.88,1.73-2.26,3.16-3.76,4.09-7.53,4.88-14.98,9.52-22.32,13.3"/>
      </g>
      <path class="cls-10" d="M89.69,111.04v14.6c0,3.85,7.01,6.97,15.66,6.97s15.66-3.12,15.66-6.97v-14.6h-31.33Z"/>
      <ellipse class="cls-10" cx="105.35" cy="116.21" rx="17.81" ry="6.82"/>
      <g>
        <path class="cls-19" d="M117.94,130.08c-24.17-.35-48.77-2.72-73.71-6.36-7.03-1.07-13.63-8.42-14.38-16.29-1.51-16.65-1.72-33.26-.55-49.83.61-8.01,7.07-15.18,14.04-15.8,24.8-2.03,49.57-2.26,74.31-.64,8.28.6,16.26,8.62,17.12,17.56,1.64,18.48,1.59,36.97-.13,55.45-.88,8.71-8.63,15.99-16.7,15.91Z"/>
        <path class="cls-3" d="M117.94,130.08c-24.17-.35-48.77-2.72-73.71-6.36-7.03-1.07-13.63-8.42-14.38-16.29-1.51-16.65-1.72-33.26-.55-49.83.61-8.01,7.07-15.18,14.04-15.8,24.8-2.03,49.57-2.26,74.31-.64,8.28.6,16.26,8.62,17.12,17.56,1.64,18.48,1.59,36.97-.13,55.45-.88,8.71-8.63,15.99-16.7,15.91Z"/>
      </g>
      <g>
        <path class="cls-18" d="M108.14,120.11c-18.89.74-38-.77-57.62-3.89-5.71-.95-11.5-6.93-12.39-13.12-1.8-13.12-1.97-26.1-.43-39.13.79-6.27,6.42-12.06,12.03-12.64,19.31-1.84,38.51-1.56,57.99.7,6.25.78,12.69,7.14,13.66,13.83,1.89,13.91,1.88,27.7-.02,41.59-.96,6.55-7.17,12.38-13.22,12.66Z"/>
        <path class="cls-6" d="M108.14,120.11c-18.89.74-38-.77-57.62-3.89-5.71-.95-11.5-6.93-12.39-13.12-1.8-13.12-1.97-26.1-.43-39.13.79-6.27,6.42-12.06,12.03-12.64,19.31-1.84,38.51-1.56,57.99.7,6.25.78,12.69,7.14,13.66,13.83,1.89,13.91,1.88,27.7-.02,41.59-.96,6.55-7.17,12.38-13.22,12.66Z"/>
      </g>
      <path class="cls-13" d="M116.74,116.21c-11.76,2.88-27.05,1.62-35.53,1.16-8.89-.49-23.58-1.96-32.89-4.8-.81-.25-1.54-.74-2.17-1.32-.84-.78-1.49-1.76-1.94-2.82-6.44-15.28-5.21-39.82.66-55.13"/>
      <path class="cls-13" d="M48.32,112.57c-.81-.25-1.54-.74-2.17-1.32-.84-.78-1.49-1.76-1.94-2.82-6.44-15.28-5.14-40.06.72-55.38"/>
      <path class="cls-1" d="M47.08,57.05c10.14-.92,20.36-1.34,30.53-.53-10.06-.13-20.5.28-30.53.53h0Z"/>
      <path class="cls-1" d="M51.32,113.16c-6.16-12.56-7.2-27.01-5.2-40.7-1.31,13.75-.32,27.9,5.2,40.7h0Z"/>
      <path class="cls-1" d="M53.42,113.9c-3.31-6.48-5.07-13.81-5.07-21.09.68,7.26,2.37,14.32,5.07,21.09h0Z"/>
      <path class="cls-1" d="M111.72,65.8c1.01,13.81.89,27.71-.33,41.5.55-13.83.68-27.66.33-41.5h0Z"/>
      <path class="cls-1" d="M115.77,72.45c.61,9.35.88,18.77-.04,28.11.24-9.22-.02-18.89.04-28.11h0Z"/>
      <rect class="cls-15" x="109.63" y="22.95" width="58.63" height="58.63"/>
      <rect class="cls-6" x="154.69" y="121.82" width="18.84" height="18.84"/>
      <path class="cls-18" d="M27.49,129.15c1.5-.68,3.03-.69,4.53,0-1.5.69-3.03.68-4.53,0h0Z"/>
      <path class="cls-18" d="M29.75,125.95c.68,1.91.69,3.85,0,5.76-.69-1.91-.68-3.85,0-5.76h0Z"/>
      <line class="cls-4" x1="33.49" y1="126.07" x2="35.26" y2="126.07"/>
      <line class="cls-4" x1="34.37" y1="124.82" x2="34.37" y2="127.07"/>
      <g>
        <path class="cls-18" d="M27.32,16.43c-4.12,1.11-4.94,2.02-5.96,6.52-1.02-4.5-1.85-5.4-5.96-6.52,4.12-1.11,4.94-2.02,5.96-6.52,1.02,4.5,1.85,5.4,5.96,6.52Z"/>
        <path class="cls-14" d="M27.32,16.43c-4.12,1.11-4.94,2.02-5.96,6.52-1.02-4.5-1.85-5.4-5.96-6.52,4.12-1.11,4.94-2.02,5.96-6.52,1.02,4.5,1.85,5.4,5.96,6.52Z"/>
      </g>
      <g>
        <path class="cls-18" d="M15.43,27.41c-1.66.45-2,.82-2.41,2.63-.41-1.82-.75-2.18-2.41-2.63,1.66-.45,2-.82,2.41-2.63.41,1.82.75,2.18,2.41,2.63Z"/>
        <path class="cls-14" d="M15.43,27.41c-1.66.45-2,.82-2.41,2.63-.41-1.82-.75-2.18-2.41-2.63,1.66-.45,2-.82,2.41-2.63.41,1.82.75,2.18,2.41,2.63Z"/>
      </g>
      <path class="cls-12" d="M94.09,83.35c0,6.89-8.22,11.16-18.35,11.16s-18.35-4.27-18.35-11.16,7.91-11.79,18.05-11.79,18.65,4.9,18.65,11.79Z"/>
      <path class="cls-2" d="M94.09,82.56c0,5.66-7.46,11.37-15.78,11.37s-13.72-5.24-13.72-10.9,5.13-10.98,13.45-10.98,16.05,4.84,16.05,10.5Z"/>
      <line class="cls-2" x1="68.88" y1="93.93" x2="65.31" y2="98.8"/>
      <line class="cls-2" x1="75.79" y1="95.08" x2="75.74" y2="100.55"/>
      <line class="cls-2" x1="82.58" y1="92.81" x2="86.91" y2="98.8"/>
    </g>
  </g>
</svg>