<?xml version="1.0" encoding="UTF-8"?>
<svg id="Layer_2" data-name="Layer 2" xmlns="http://www.w3.org/2000/svg" viewBox="0 0 159.16854 96.25818">
  <defs>
    <style>
      .cls-1 {
        fill: #7e7193;
      }

      .cls-2, .cls-3, .cls-4, .cls-5, .cls-6, .cls-7, .cls-8, .cls-9, .cls-10, .cls-11, .cls-12, .cls-13, .cls-14 {
        stroke-miterlimit: 10;
      }

      .cls-2, .cls-3, .cls-4, .cls-15 {
        fill: #d5c1de;
      }

      .cls-2, .cls-7, .cls-10, .cls-13, .cls-14 {
        stroke: #a589af;
      }

      .cls-3, .cls-5, .cls-8 {
        stroke-width: .25px;
      }

      .cls-3, .cls-8 {
        stroke: #d5c1de;
      }

      .cls-4, .cls-6, .cls-9, .cls-11 {
        stroke: #7e7193;
      }

      .cls-5 {
        fill: #c4a3cd;
        stroke: #c4a3cd;
      }

      .cls-6 {
        stroke-width: 2px;
      }

      .cls-6, .cls-7, .cls-11, .cls-14 {
        fill: #c8b7da;
      }

      .cls-7, .cls-12 {
        stroke-width: .75px;
      }

      .cls-8, .cls-12 {
        fill: #fff;
      }

      .cls-9 {
        fill: #aba3c1;
      }

      .cls-9, .cls-10 {
        stroke-width: .5px;
      }

      .cls-10, .cls-13 {
        fill: #59506f;
      }

      .cls-12 {
        stroke: #6a5f82;
      }

      .cls-16 {
        fill: #f2eff2;
      }
    </style>
  </defs>
  <g id="Layer_1-2" data-name="Layer 1">
    <g>
      <path class="cls-14" d="M3.45751,84.99973l-2.17772-1.12752c-.47902-.24802-.77979-.74243-.77979-1.28185v-17.11763c0-.53892.30021-1.03295.77854-1.2812l2.17896-1.13085v21.93905Z"/>
      <path class="cls-14" d="M155.71103,63.06068l2.17772,1.12752c.47902.24802.77979.74243.77979,1.28185v17.11763c0,.53892-.30021,1.03295-.77854,1.2812l-2.17896,1.13085v-21.93905Z"/>
      <rect class="cls-6" x="3.45751" y="1" width="152.25352" height="94.25818" rx="5.58801" ry="5.58801"/>
      <circle class="cls-9" cx="9.06074" cy="6.39382" r="1.79794"/>
      <g>
        <path class="cls-16" d="M14.56211,70.79127c-2.05078,0-3.71875-1.66797-3.71875-3.71777V13.4441l6.45508-5.14014h124.37988l6.45508,5.14014v53.62842c0,2.05078-1.66797,3.71875-3.71875,3.71875H14.56211Z"/>
        <path class="cls-1" d="M141.50376,8.80391l6.12988,4.8812-.00024,53.38791c0,1.7775-1.44092,3.21844-3.21851,3.21844l-129.85278.00006c-1.77759,0-3.21851-1.44095-3.21851-3.21848V13.6851l6.12964-4.8812h124.03052M141.85337,7.80391H17.12363l-.27344.21774-6.12964,4.8812-.37695.30026v53.86993c0,2.32608,1.89233,4.21848,4.21851,4.21848l129.85278-.00006c2.32617,0,4.21851-1.8924,4.21851-4.21844l.00024-53.38791v-.48203l-.3772-.30023-6.12988-4.88123-.27319-.21771h0Z"/>
      </g>
      <path class="cls-15" d="M11.34364,60.07537h136.28977v7.6756c0,1.40216-1.13838,2.54054-2.54054,2.54054H13.88418c-1.40216,0-2.54054-1.13838-2.54054-2.54054v-7.6756h0Z"/>
      <rect class="cls-3" x="11.50719" y="35.51688" width="136.12644" height="9.51268"/>
      <line class="cls-3" x1="11.34364" y1="35.51688" x2="147.63363" y2="35.51688"/>
      <line class="cls-8" x1="11.34364" y1="60.62878" x2="147.63363" y2="60.62878"/>
      <circle class="cls-9" cx="150.10779" cy="6.39382" r="1.79794"/>
      <line class="cls-8" x1="11.34364" y1="45.02926" x2="147.63363" y2="45.02956"/>
      <rect class="cls-13" x="38.79465" y="34.75591" width="81.18153" height="19.21441" rx="8.28738" ry="8.28738"/>
      <rect class="cls-2" x="62.38911" y="37.37174" width="33.9926" height="13.98277"/>
      <circle class="cls-12" cx="48.65001" cy="44.36312" r="7.62414"/>
      <circle class="cls-12" cx="110.12082" cy="44.36312" r="7.62414"/>
      <circle class="cls-14" cx="48.65001" cy="44.36312" r="6.18286"/>
      <circle class="cls-14" cx="110.12082" cy="44.36312" r="6.18286"/>
      <line class="cls-7" x1="38.79465" y1="16.20981" x2="110.12082" y2="16.20981"/>
      <line class="cls-7" x1="49.83286" y1="20.77561" x2="128.48334" y2="20.77561"/>
      <line class="cls-7" x1="15.91396" y1="26.29262" x2="139.38083" y2="26.29262"/>
      <circle class="cls-9" cx="9.06074" cy="90.11625" r="1.79794"/>
      <circle class="cls-9" cx="150.10779" cy="90.11625" r="1.79794"/>
      <path class="cls-4" d="M127.94253,95.25818H30.82829l5.63736-16.31285c.3258-.94278,1.21358-1.57528,2.21107-1.57528h81.41862c.99755,0,1.88536.63256,2.21112,1.57542l5.63608,16.3127Z"/>
      <path class="cls-11" d="M124.85301,95.25818H33.91965l4.48045-13.97983c.31037-.96841,1.21082-1.62539,2.22775-1.62539h77.29948c1.00485,0,1.89745.64171,2.21752,1.59421l4.70815,14.01101Z"/>
      <circle class="cls-9" cx="79.58427" cy="84.12364" r="1.79794"/>
      <circle class="cls-10" cx="48.65001" cy="90.11625" r="1.79794"/>
      <circle class="cls-10" cx="111.91876" cy="90.63744" r="1.79794"/>
      <rect class="cls-10" x="56.27415" y="85.86463" width="3.18187" height="3.18187" rx=".7171" ry=".7171"/>
      <rect class="cls-10" x="100.90574" y="85.86463" width="3.18187" height="3.18187" rx=".7171" ry=".7171"/>
      <line class="cls-14" x1="48.65001" y1="38.18026" x2="48.65001" y2="40.0248"/>
      <line class="cls-14" x1="48.65001" y1="50.54597" x2="48.65001" y2="48.70461"/>
      <line class="cls-14" x1="42.46715" y1="44.36312" x2="44.3082" y2="44.36312"/>
      <line class="cls-14" x1="52.97744" y1="44.36312" x2="54.83286" y2="44.36312"/>
      <line class="cls-14" x1="44.3082" y1="48.70461" x2="45.61024" y2="47.40258"/>
      <line class="cls-14" x1="52.97744" y1="48.70461" x2="51.6754" y2="47.40258"/>
      <line class="cls-14" x1="51.68977" y1="41.46527" x2="52.99181" y2="40.16323"/>
      <line class="cls-14" x1="45.61024" y1="41.46527" x2="44.3082" y2="40.16323"/>
      <line class="cls-14" x1="110.12082" y1="38.18026" x2="110.12082" y2="40.0248"/>
      <line class="cls-14" x1="110.12082" y1="50.54597" x2="110.12082" y2="48.70461"/>
      <line class="cls-14" x1="103.93796" y1="44.36312" x2="105.77901" y2="44.36312"/>
      <line class="cls-14" x1="114.44825" y1="44.36312" x2="116.30367" y2="44.36312"/>
      <line class="cls-14" x1="105.77901" y1="48.70461" x2="107.08105" y2="47.40258"/>
      <line class="cls-14" x1="114.44825" y1="48.70461" x2="113.14622" y2="47.40258"/>
      <line class="cls-14" x1="113.16058" y1="41.46527" x2="114.46262" y2="40.16323"/>
      <line class="cls-14" x1="107.08105" y1="41.46527" x2="105.77901" y2="40.16323"/>
      <polygon class="cls-5" points="21.56172 11.83306 22.81684 15.69594 26.87851 15.69594 23.59255 18.08333 24.84768 21.94621 21.56172 19.55882 18.27576 21.94621 19.53089 18.08333 16.24493 15.69594 20.3066 15.69594 21.56172 11.83306"/>
    </g>
  </g>
</svg>