<?xml version="1.0" encoding="UTF-8"?>
<svg id="Layer_2" data-name="Layer 2" xmlns="http://www.w3.org/2000/svg" xmlns:xlink="http://www.w3.org/1999/xlink" viewBox="0 0 180.76 143.97">
  <defs>
    <style>
      .cls-1, .cls-2, .cls-3, .cls-4, .cls-5, .cls-6, .cls-7, .cls-8, .cls-9, .cls-10, .cls-11 {
        stroke-miterlimit: 10;
      }

      .cls-1, .cls-2, .cls-3, .cls-8 {
        stroke: #d6c5e1;
      }

      .cls-1, .cls-2, .cls-12 {
        fill: #f7eef5;
      }

      .cls-1, .cls-3, .cls-6, .cls-11 {
        stroke-width: .75px;
      }

      .cls-2, .cls-4, .cls-8 {
        stroke-width: .5px;
      }

      .cls-3, .cls-4, .cls-13, .cls-8, .cls-9, .cls-11 {
        fill: none;
      }

      .cls-4, .cls-5, .cls-6, .cls-7, .cls-9, .cls-10, .cls-11 {
        stroke: #7e7193;
      }

      .cls-4, .cls-6, .cls-11 {
        stroke-linecap: round;
      }

      .cls-5 {
        stroke-width: 2px;
      }

      .cls-5, .cls-7, .cls-14 {
        fill: #d6c5e1;
      }

      .cls-15 {
        clip-path: url(#clippath-1);
      }

      .cls-6 {
        fill: #fff;
      }

      .cls-16 {
        clip-path: url(#clippath-3);
      }

      .cls-10 {
        fill: #59506f;
      }

      .cls-17 {
        clip-path: url(#clippath-2);
      }

      .cls-18 {
        clip-path: url(#clippath);
      }
    </style>
    <clipPath id="clippath">
      <path class="cls-13" d="M65.22,36.51v50.92h56.54v-50.92h-56.54ZM69.15,46.75c.26.28.54.55.8.82h0s-.88,0-.88,0c-.13-.13-.26-.25-.39-.38-.76-.92-1.72-1.72-1.96-2.98.06-.28.11-.26.16-.35,1.01-.98,2.13-1.86,3.32-2.61l.91.16s.03.03.04.05c-1.38.8-2.66,1.73-3.78,2.79.26.84,1.09,1.73,1.78,2.51ZM94.16,74.02h0s-.02.06-.04.09c-.22.26-.44.51-.66.76l-.32-.25v-.14c.2-.24.4-.47.58-.66.05-.09.09-.18.13-.28.1-.21.17-.41.21-.62,0,0,0-.02,0-.02.31-1.61-.92-3.21-2.08-4.33-3.53-3.5-7.27-6.77-11.01-10.04h0c-.12-.1-.24-.21-.35-.31-.18-.16-.37-.32-.55-.48h0c-.52-.46-1.04-.91-1.56-1.37h0s-.05-.04-.07-.06c-.25-.22-.51-.45-.76-.67h0c-.17-.16-.35-.32-.52-.47h0c-.61-.54-1.21-1.09-1.82-1.63h0s0,0-.01,0c-.25-.23-.5-.45-.75-.68h0s-.09-.09-.14-.13c-.13-.12-.26-.23-.38-.35h0c-.22-.21-.44-.41-.66-.62l-.03-.85c.56.52,1.12,1.02,1.68,1.53.93.85,1.87,1.69,2.81,2.53.16.14.32.28.47.43,1.12.99,2.24,1.99,3.35,2.98h0c2.04,1.81,4.07,3.62,6.08,5.46,2,2.21,7.06,5.39,6.83,8.76h0s0,0,0,0c-.03.46-.17.92-.42,1.38,0,.01,0,.02-.01.03ZM119.66,48.63c-.1.1-.21.19-.31.28h0c-1.06.98-2.13,1.95-3.19,2.93h0c-5.23,4.83-10.49,9.62-15.8,14.35-2.66,2.17-4.64,4.08-4.27,6.52.01.09.03.17.05.26.02.08.03.15.05.23.12.45.32.92.62,1.42l-.47.19c-.21-.39-.38-.79-.5-1.2h0s-.01-.07-.02-.1c-.05-.19-.1-.37-.13-.56-.01-.08-.02-.17-.03-.25-.01-.08-.03-.16-.03-.24h.01c-.14-1.63.47-3.26,2.02-4.56,6.55-5.84,13.03-11.78,19.45-17.76h0c.71-.66,1.43-1.31,2.13-1.97.11-.09.2-.19.27-.28.04-.05.07-.11.1-.16.02-.04.05-.07.07-.11.08-.17.09-.33.06-.49h0c-.18-.82-1.72-1.42-2.63-1.89-.02-.01-.04-.02-.06-.03-.1-.05-.2-.11-.28-.16-1.22-.6-2.37-.93-3.47-1.1-.12-.02-.24-.04-.36-.05-.27-.03-.54-.05-.8-.07-.11,0-.21,0-.32-.01-.27,0-.53,0-.8.01-.13,0-.25.01-.38.02-.21.02-.42.04-.62.06-.11.01-.22.02-.33.04-.28.04-.56.09-.84.14-.14.03-.29.06-.43.08-.16.03-.32.07-.49.1-.16.03-.31.07-.47.1-.07.02-.15.04-.22.05-1.21.29-2.41.62-3.63.85-.06.01-.13.02-.19.03-.28.05-.56.09-.84.13-.05,0-.1.02-.16.02-.28.03-.57.06-.86.08h0c-.78.04-1.58.02-2.4-.1.77-.15,1.55-.31,2.32-.46,0,0,0,0,.01,0h0s.54-.11.54-.11l.02-.03c.27-.03.55-.07.82-.11.15-.02.3-.05.46-.07.24-.04.49-.09.73-.14.12-.03.25-.05.37-.08,2.1-.48,4.19-1.17,6.33-1.28.31-.04.63-.05.94-.05h.02s.03,0,.05,0c.42,0,.83.03,1.24.09.08.01.16.02.24.04.1.02.21.03.31.05v.02c1.21.23,2.39.64,3.48,1.17.02,0,.03.02.05.03,1.47.79,4.44,1.97,2.85,3.84-.08.09-.16.19-.27.29Z"/>
    </clipPath>
    <clipPath id="clippath-1">
      <path class="cls-13" d="M93.64,70.65v54.85h33.57v-54.85h-33.57ZM125.84,123.52l-2-.07c.02-.54.05-1.07.08-1.61.1-1.95.2-3.96.05-5.89-.04-.53-.11-1.1-.19-1.7.39.19.78.38,1.22.59.4.2.79.41,1.17.62.15,2.71-.08,5.42-.31,8.05Z"/>
    </clipPath>
    <clipPath id="clippath-2">
      <path class="cls-13" d="M7.13,43.34v47.79h170.27v-47.79H7.13ZM54.45,88.32c-3.54.42-6.95.76-10.16,1.04l-.1-2.78c3.24-.27,6.72-.62,10.36-1.05l-.1,2.8ZM54.26,64.3c-2.84.82-5.61,1.65-8.27,2.49-.04-.04-.08-.06-.12-.1-.62-.64-1.09-1.43-1.41-2.3,3.19-1.01,6.57-2.03,10.04-3.02l.15.03v.21c.04.94-.1,1.85-.39,2.69ZM95.37,81.52l-.08.05-.66.13-.19-2.77.24-.05.93-.2-.24,2.83ZM118.09,50.08c-.2.19-.41.37-.61.56-8.92,1.34-18.19,2.99-27.63,4.95-3.2.66-6.49,1.38-9.8,2.13-.75-.65-1.49-1.31-2.24-1.97l.47-.45c3.73-.85,7.44-1.66,11.02-2.41,10.24-2.12,20.31-3.91,29.94-5.31l1.01.5c-.69.7-1.4,1.38-2.15,1.99ZM143.65,66.69c-.96,1-2.2,1.54-3.48,1.54-.68,0-1.34-.16-1.96-.45,1.77-.55,3.48-1.1,5.11-1.64l.72.11c-.12.15-.25.3-.38.45ZM135.32,48.35l.1-2.77c3.32-.34,6.5-.6,9.46-.8l.1,2.75c-3.03.2-6.27.48-9.66.83Z"/>
    </clipPath>
    <clipPath id="clippath-3">
      <path class="cls-13" d="M12.49,37.82v47.79h170.27v-47.79H12.49ZM135.6,40.6c3.12-.37,6.17-.68,9.11-.94l.1,2.78c-2.87.25-5.99.57-9.3.96l.1-2.8ZM44.07,60.76c3.26-1.11,6.75-2.22,10.43-3.33h0s.1,2.84.1,2.84c-3.64,1.1-7.13,2.22-10.37,3.33-.15-.64-.22-1.31-.2-1.99l.03-.85ZM16.6,77.45c-.67.39-1.28.76-1.86,1.13l-.54-.33.23-.37c1.12-.72,2.37-1.44,3.72-2.14-.82.71-1.29,1.27-1.55,1.71ZM54.62,83.36c-3.69.38-7.22.67-10.52.87l-.06-1.85c-.01-.3,0-.6.03-.9,3.27-.21,6.77-.5,10.44-.87.11.57.17,1.17.15,1.78l-.03.98ZM91.19,77.37l-.21-.1-.13-.22s.08-.08.13-.13c.6-.62,1.27-1.41,1.88-2.12h.05s.36.29.36.29c-.68.77-1.37,1.54-2.08,2.28ZM95.75,77.04c-.47.09-.95.19-1.42.28l-.19-2.76,1.14-.22.67.31-.21,2.4ZM117.41,45.24l-.83.84c-6.95,1.14-14.14,2.48-21.38,3.98-5.94,1.23-11.9,2.57-17.73,3.99l-1.24.3c-.69-.62-1.38-1.24-2.07-1.86l.61-.61,1.31-.32h0c6.08-1.49,12.31-2.9,18.54-4.19,6.81-1.41,13.57-2.68,20.16-3.78.77.23,1.51.54,2.22.88.14.08.29.16.46.24l-.08.53ZM122.81,45.11c-.29.04-.57.09-.86.13.67-.92,1.31-1.87,1.9-2.85l.62.29h0c-.52.85-1.08,1.65-1.67,2.43ZM144.91,64.74c-2.52.79-5.12,1.58-7.77,2.34-.15-.13-.31-.24-.46-.39-.54-.56-.97-1.24-1.28-1.98,3.38-.97,6.67-1.97,9.78-2.97l.28.06c.01,1.04-.19,2.04-.56,2.94Z"/>
    </clipPath>
  </defs>
  <g id="Layer_1-2" data-name="Layer 1">
    <g>
      <g>
        <g>
          <path class="cls-12" d="M94.1,73.94s.35-.25.43-1.48c.05-.69.06-1.22-.29-1.81-.7-1.2-2.06-3.01-5.36-5.76,0,0-22.33-19.78-21.48-20.72,0,0,3.86-3.02,8.42-4.59,1.89-.65,4.43-1.03,6.42-.82,3.23.35,4.79-.42,11.73,4.69.81.59,2.69,1.59,3.64,1.91,2.86.95,4.97.35,6.92-.14,2.89-.72,4.69-1.63,8.01-1.27.56.06,1.12.18,1.66.34,2.62.77,5.27,1.99,5.35,2.85.09,1.06-3.38,4.03-6.55,7.09s-13.44,11.87-13.44,11.87c0,0-3.42,2.82-3.64,4.29,0,0-.51.53-.29,2.24.05.37.11.89.24,1.29l-.92,11.48-.86-11.48"/>
          <path class="cls-14" d="M94.1,73.94c.63-.97.62-2.72-.11-3.65-1.18-1.8-2.76-3.29-4.38-4.69-6.5-5.64-12.9-11.39-19.05-17.41-1.12-1.17-2.36-2.27-3.25-3.64-.03-.11-.18-.2-.03-.49,4.47-3.3,9.92-6.17,15.65-5.44,3.86-.11,7.33,1.83,10.35,4.05,2.91,2.28,6.58,3.68,10.26,2.56,3.57-.89,7.39-2.38,11.09-1.03,1.77.65,3.79,1.12,5.05,2.62.29.51-.12,1.09-.41,1.49-1.61,2.04-5.12,5.05-7.01,6.91-3.98,3.65-8.55,7.53-12.66,11.08-1.32,1.21-2.99,2.49-3.56,4.21-.58,1-.24,2.38-.02,3.45,0,0-.98,11.48-.98,11.48h-.14s-.79-11.49-.79-11.49l.93,11.48s-.14,0-.14,0l.86-11.49c-.23-.94-.6-2.57.08-3.62,0,0-.04.08-.04.08.1-.51.37-.92.65-1.3,1.59-2.1,5.21-4.91,7.19-6.69,4.09-3.53,8.52-7.53,12.43-11.31.99-.97,2.03-1.92,2.86-3.02.25-.35.55-.8.38-1.04-1.18-1.32-3.17-1.82-4.81-2.4-3.65-1.3-7.27.2-10.84,1.09-8.63,2.53-12.34-7.03-20.75-6.68-5.59-.77-11.07,2.14-15.37,5.26.8,1.25,2.14,2.54,3.25,3.68,6.12,6.03,12.51,11.8,18.91,17.53,1.6,1.43,3.17,2.94,4.33,4.76.72.94.71,2.71.06,3.67h0Z"/>
        </g>
        <path class="cls-14" d="M95.64,72.65c1.7,4.85,5.33,8.63,8.8,12.29,3.54,3.66,7.26,7.12,10.96,10.63,4.55,4.41,8.14,10.2,9.31,16.48.82,3.77.46,7.65.13,11.44.11-2.54.33-5.09.12-7.62-.55-7.59-4.44-14.74-9.9-19.94-3.67-3.53-7.4-7.01-10.9-10.72-3.41-3.72-7.05-7.61-8.52-12.56h0Z"/>
        <ellipse class="cls-11" cx="92.26" cy="67.23" rx="84.48" ry="13.27" transform="translate(-11.73 20.13) rotate(-11.71)"/>
        <ellipse class="cls-11" cx="97.63" cy="61.71" rx="84.48" ry="13.27" transform="translate(-10.5 21.11) rotate(-11.71)"/>
      </g>
      <rect class="cls-5" x="33.66" y="1" width="122.19" height="7.19" rx="3.59" ry="3.59"/>
      <path class="cls-7" d="M39.82,10.07h109.87v2.02c0,1.82-1.48,3.31-3.31,3.31H43.13c-1.82,0-3.31-1.48-3.31-3.31v-2.02h0Z"/>
      <path class="cls-5" d="M49.35,67.23h0c-2.47,0-4.41-2.56-4.31-5.59l1.6-45.6h5.42s1.6,45.6,1.6,45.6c.11,3.04-1.83,5.59-4.31,5.59Z"/>
      <rect class="cls-5" x="33.66" y="135.78" width="122.19" height="7.19" rx="3.59" ry="3.59"/>
      <path class="cls-7" d="M43.13,128.58h103.26c1.82,0,3.31,1.48,3.31,3.31v2.02H39.82v-2.02c0-1.82,1.48-3.31,3.31-3.31Z"/>
      <path class="cls-5" d="M49.35,76.74h0c-2.47,0-4.41,2.56-4.31,5.61l1.6,45.74h5.42s1.6-45.74,1.6-45.74c.11-3.04-1.83-5.61-4.31-5.61Z"/>
      <path class="cls-5" d="M140.17,67.23h0c-2.47,0-4.41-2.56-4.31-5.59l1.6-45.6h5.42s1.6,45.6,1.6,45.6c.11,3.04-1.83,5.59-4.31,5.59Z"/>
      <path class="cls-1" d="M133.07,121.56c-1.81-1.59-4.24-4.4-8.25-6.37-7.77-3.83-7.78-2.98-15.18-6.49-8.03-3.81-10.59-7.46-14.84-6.86-4.39.61-5.53,6.1-12.22,8.07-3.67,1.08-5.05.54-9.6,1.15-3.74.51-9.22,2.71-15.44,6.76,0,0-.77,9.72.94,10.27h73.65l.93-6.53Z"/>
      <line class="cls-3" x1="56.5" y1="21.35" x2="133.3" y2="21.35"/>
      <line class="cls-3" x1="56.36" y1="123.5" x2="133.16" y2="123.5"/>
      <path class="cls-5" d="M140.17,76.74h0c-2.47,0-4.41,2.56-4.31,5.61l1.6,45.74h5.42s1.6-45.74,1.6-45.74c.11-3.04-1.83-5.61-4.31-5.61Z"/>
      <path class="cls-9" d="M133.41,123.01c-.19,2.17-.62,4.09-1.28,5.52H57.67c-1.13-2.41-1.31-6.26-.81-10.28.04-.32.08-.64.13-.96.97-6.6,4.35-12.8,9.49-17.92l25.91-25.62c1.01-.92,1.01-2.31,0-3.23l-22.67-20.39c-2.66-2.57-5.65-5.72-7.64-8.81-.91-1.4-1.49-2.51-1.65-2.8-1.34-2.55-4.62-8.98-3.93-17.17.12-1.43.41-3.48,1.17-5.9h74.46c.66,1.43,1.04,3.5,1.17,5.9.56,10.54-4.29,20.79-12.98,28.57l-22.79,20.6c-1.02.92-1.02,2.31,0,3.23l25.46,24.17c7.29,6.95,11.23,15.95,10.42,25.09Z"/>
      <path class="cls-14" d="M127.75,128.05c1.44-8.19,1.14-17.27-3.68-24.34-4.83-6.91-11.26-12.52-17.32-18.32-3.07-2.89-6.17-5.75-9.08-8.83-2.58-2.55-2.94-6.2-.02-8.65,7.27-6.48,14.48-13.08,21.58-19.74,1.72-1.52-1.44-2.44-2.48-3.11-9.14-4.48-14.29,5.26-24.17-2.78-7.24-6.2-18.88-4.1-25.21,1.96.26.84,1.09,1.73,1.78,2.51,2.86,3.05,6.05,5.83,9.18,8.65,3.15,2.8,6.32,5.59,9.43,8.44,2.3,2.54,8.63,6.35,6.36,10.27-3.59,4.28-7.8,8.06-11.86,11.87-3.86,4.24-13.84,13.89-17.22,18.32-5.04,6.72-7.04,15.63-4.73,23.78-2.4-8.14-.49-17.15,4.51-23.94,1.59-2.33,3.66-4.26,5.55-6.31l11.58-12.15c3.06-2.9,6.13-5.72,9.03-8.76.9-.94,1.98-2.28,2.74-3.1,1.13-1.91-.36-3.92-1.74-5.25-7.5-7.43-15.93-13.82-23.31-21.39-.76-.92-1.72-1.72-1.96-2.98.06-.28.11-.26.16-.35,5.26-5.12,13.42-7.33,20.53-5.27,4.28,1.21,7,5.07,11.04,5.98,4.18,1.24,8.17-1.19,12.32-1.4,2.18-.25,4.37.38,6.28,1.31,1.53.83,4.83,2.1,2.63,4.15-6.37,5.93-12.8,11.78-19.3,17.56-3.81,3.11-6.24,5.69-2.34,10.04,8.62,9.21,19.03,16.89,26.27,27.33,4.78,7.16,4.99,16.28,3.45,24.49h0Z"/>
      <g class="cls-18">
        <g>
          <path class="cls-12" d="M94.1,73.94s.35-.25.43-1.48c.05-.69.06-1.22-.29-1.81-.7-1.2-2.06-3.01-5.36-5.76,0,0-22.33-19.78-21.48-20.72,0,0,3.86-3.02,8.42-4.59,1.89-.65,4.43-1.03,6.42-.82,3.23.35,4.79-.42,11.73,4.69.81.59,2.69,1.59,3.64,1.91,2.86.95,4.97.35,6.92-.14,2.89-.72,4.69-1.63,8.01-1.27.56.06,1.12.18,1.66.34,2.62.77,5.27,1.99,5.35,2.85.09,1.06-3.38,4.03-6.55,7.09s-13.44,11.87-13.44,11.87c0,0-3.42,2.82-3.64,4.29,0,0-.51.53-.29,2.24.05.37.11.89.24,1.29l-.92,11.48-.86-11.48"/>
          <path class="cls-14" d="M94.1,73.94c.63-.97.62-2.72-.11-3.65-1.18-1.8-2.76-3.29-4.38-4.69-6.5-5.64-12.9-11.39-19.05-17.41-1.12-1.17-2.36-2.27-3.25-3.64-.03-.11-.18-.2-.03-.49,4.47-3.3,9.92-6.17,15.65-5.44,3.86-.11,7.33,1.83,10.35,4.05,2.91,2.28,6.58,3.68,10.26,2.56,3.57-.89,7.39-2.38,11.09-1.03,1.77.65,3.79,1.12,5.05,2.62.29.51-.12,1.09-.41,1.49-1.61,2.04-5.12,5.05-7.01,6.91-3.98,3.65-8.55,7.53-12.66,11.08-1.32,1.21-2.99,2.49-3.56,4.21-.58,1-.24,2.38-.02,3.45,0,0-.98,11.48-.98,11.48h-.14s-.79-11.49-.79-11.49l.93,11.48s-.14,0-.14,0l.86-11.49c-.23-.94-.6-2.57.08-3.62,0,0-.04.08-.04.08.1-.51.37-.92.65-1.3,1.59-2.1,5.21-4.91,7.19-6.69,4.09-3.53,8.52-7.53,12.43-11.31.99-.97,2.03-1.92,2.86-3.02.25-.35.55-.8.38-1.04-1.18-1.32-3.17-1.82-4.81-2.4-3.65-1.3-7.27.2-10.84,1.09-8.63,2.53-12.34-7.03-20.75-6.68-5.59-.77-11.07,2.14-15.37,5.26.8,1.25,2.14,2.54,3.25,3.68,6.12,6.03,12.51,11.8,18.91,17.53,1.6,1.43,3.17,2.94,4.33,4.76.72.94.71,2.71.06,3.67h0Z"/>
        </g>
      </g>
      <path class="cls-14" d="M62.74,15.79c-.95,5.95-.95,12.25,1.27,17.9,3.3,7.43,9.03,13.44,15.04,18.78,1.5,1.37,3.06,2.68,4.63,3.97-8.21-5.92-16.21-13.01-20.3-22.48-2.22-5.75-2.04-12.26-.64-18.16h0Z"/>
      <path class="cls-14" d="M66.35,16.09c-.03,4.71-.18,9.42.92,14.02,2.05,7.57,7.38,13.81,12.9,19.2-6.06-4.91-11.62-11.32-13.56-19.05-1.06-4.66-.73-9.46-.25-14.17h0Z"/>
      <path class="cls-2" d="M95.2,97.3c-.67,0-1.01,2.21,0,2.18s.74-2.19,0-2.18Z"/>
      <path class="cls-2" d="M95.36,88.92c-.15,1.55-1.09.23-.41-.58.29-.24.41.24.41.58Z"/>
      <path class="cls-2" d="M95.26,92.33c-.22.15-.58.02-.71-.22s-.08-.53.05-.76c.51-.92,1.37.51.66.98Z"/>
      <path class="cls-2" d="M95.03,95.33c-.71.04-.75-1.45-.08-1.53.76-.09.9,1.49.08,1.53Z"/>
      <path class="cls-8" d="M59.31,16.09c-.09-.67-.92,6.72-.68,9.91.78,10.15,5.47,15.31,9.16,19.65"/>
      <path class="cls-14" d="M122.57,36.45c-3.71,10.11-12.29,17.45-21.43,22.69,6.34-4.68,12.67-9.54,17.42-15.9.85-1,1.36-2.21,2.02-3.37.64-1.17,1.47-2.19,1.99-3.43h0Z"/>
      <path class="cls-14" d="M115.84,51.73c8.3-6.71,13.1-17.59,14.4-28.03-.12,10.29-5.57,22.39-14.4,28.03h0Z"/>
      <path class="cls-14" d="M94.28,73.09c-.46,2.72-2.2,5.09-4.13,6.99-1.85,2.01-3.58,4.15-5.49,6.11-1.67,1.79-4.08,4.14-5.68,5.93-5.26,5.43-10.53,10.71-14.12,17.46-2.75,5.46-3.3,11.97-2.22,17.95-1.42-6.65-.75-14.08,2.89-19.93,3.41-6.01,8.33-10.9,13.11-15.79,1.61-1.79,4.04-4.14,5.71-5.92,1.91-1.96,3.68-4.04,5.58-6.02,1.94-1.9,3.78-4.05,4.35-6.78h0Z"/>
      <path class="cls-14" d="M93.67,69.75c.7.92,1.43,2.2.81,3.34-.09-1.2-.75-2.12-.81-3.34h0Z"/>
      <path class="cls-14" d="M77.34,98.74c-6.5,5.01-11.45,13.03-10.34,21.48-1.85-8.43,3.37-17.01,10.34-21.48h0Z"/>
      <g class="cls-15">
        <path class="cls-14" d="M95.64,72.65c1.7,4.85,5.33,8.63,8.8,12.29,3.54,3.66,7.26,7.12,10.96,10.63,4.55,4.41,8.14,10.2,9.31,16.48.82,3.77.46,7.65.13,11.44.11-2.54.33-5.09.12-7.62-.55-7.59-4.44-14.74-9.9-19.94-3.67-3.53-7.4-7.01-10.9-10.72-3.41-3.72-7.05-7.61-8.52-12.56h0Z"/>
      </g>
      <path class="cls-14" d="M108.01,92.39c11.11,7.47,14.73,18.14,12.92,31.1,1-13.3-2.16-22.79-12.92-31.1h0Z"/>
      <line class="cls-6" x1="105.5" y1="132.32" x2="146.07" y2="132.32"/>
      <line class="cls-6" x1="109.41" y1="130.8" x2="146.07" y2="130.8"/>
      <line class="cls-6" x1="42.41" y1="132.32" x2="60.78" y2="132.32"/>
      <line class="cls-6" x1="42.41" y1="130.8" x2="53.11" y2="130.8"/>
      <line class="cls-6" x1="42.9" y1="13.49" x2="57.67" y2="13.49"/>
      <line class="cls-6" x1="42.48" y1="11.97" x2="63.19" y2="11.97"/>
      <g class="cls-17">
        <ellipse class="cls-11" cx="92.26" cy="67.23" rx="84.48" ry="13.27" transform="translate(-11.73 20.13) rotate(-11.71)"/>
      </g>
      <g class="cls-16">
        <ellipse class="cls-11" cx="97.63" cy="61.71" rx="84.48" ry="13.27" transform="translate(-10.5 21.11) rotate(-11.71)"/>
      </g>
      <path class="cls-4" d="M8.88,94.59c-2.79.56-3.24,1.01-3.8,3.8-.56-2.79-1.01-3.24-3.8-3.8,2.79-.56,3.24-1.01,3.8-3.8.56,2.79,1.01,3.24,3.8,3.8Z"/>
      <circle class="cls-4" cx="159.4" cy="71.1" r="1.51"/>
      <circle class="cls-4" cx="155.73" cy="75.5" r=".72"/>
      <path class="cls-14" d="M95.92,73.09c.34,1.99.06,4.03-.15,6-.17,2.54-.3,5.24-.88,7.77,0,0-.16-1.8-.16-1.8-.34-3.89-.77-7.79-.59-11.7.11,1.95.29,3.89.49,5.83l.6,5.82s-.49-.03-.49-.03c.41-1.93.39-3.95.66-5.95.29-1.99.66-3.95.53-5.96h0Z"/>
      <circle class="cls-10" cx="49.35" cy="71.99" r="4.53"/>
      <circle class="cls-10" cx="140.17" cy="71.99" r="4.53"/>
    </g>
  </g>
</svg>